<svg width="198" height="84" viewBox="0 0 198 84" fill="none" xmlns="http://www.w3.org/2000/svg">
<path d="M2.19539 80.968C2.13672 80.968 2.08072 80.9547 2.02739 80.928C1.91005 80.9173 1.80872 80.8693 1.72339 80.784C1.63805 80.6933 1.59539 80.5893 1.59539 80.472C1.54205 78.9787 1.53139 77.44 1.56339 75.856C1.56339 75.7387 1.59805 75.6373 1.66739 75.552C1.74205 75.4613 1.83272 75.4053 1.93939 75.384C1.95539 75.3787 1.97139 75.376 1.98739 75.376L2.22739 75.336C2.38205 75.304 2.47539 75.288 2.50739 75.288C2.54472 75.2827 2.64072 75.2693 2.79539 75.248C2.95539 75.2213 3.06739 75.208 3.13139 75.208C3.19539 75.208 3.29939 75.2053 3.44339 75.2C3.58739 75.1947 3.70472 75.2 3.79539 75.216L4.11539 75.28C4.23272 75.3067 4.34472 75.3413 4.45139 75.384C4.55805 75.432 4.65939 75.488 4.75539 75.552C5.06472 75.744 5.28605 75.976 5.41939 76.248C5.55805 76.52 5.59272 76.792 5.52339 77.064C5.45405 77.336 5.29672 77.5947 5.05139 77.84C5.09939 77.8773 5.15005 77.9173 5.20339 77.96C5.43805 78.1787 5.60072 78.424 5.69139 78.696C5.78205 78.9787 5.79272 79.2587 5.72339 79.536C5.66472 79.7973 5.54472 80.0373 5.36339 80.256C5.18205 80.4693 4.96339 80.64 4.70739 80.768C4.55272 80.8373 4.38739 80.8933 4.21139 80.936C4.03539 80.9787 3.84339 81.0027 3.63539 81.008C3.42739 81.0187 3.25405 81.0213 3.11539 81.016C2.98205 81.016 2.80605 81.0107 2.58739 81C2.37405 80.984 2.24339 80.9733 2.19539 80.968ZM2.54739 80.024C2.85672 80.056 3.17405 80.0667 3.49939 80.056C3.83005 80.0453 4.09139 79.9947 4.28339 79.904C4.56072 79.7653 4.72872 79.5707 4.78739 79.32C4.84072 79.0853 4.76072 78.8747 4.54739 78.688C4.48872 78.6293 4.43272 78.584 4.37939 78.552C4.33139 78.52 4.26739 78.4987 4.18739 78.488C4.10739 78.4773 4.04339 78.472 3.99539 78.472C3.95272 78.472 3.85672 78.4747 3.70739 78.48C3.56339 78.4853 3.44605 78.488 3.35539 78.488C3.30739 78.4933 3.25939 78.488 3.21139 78.472C3.17405 78.4773 3.05405 78.4773 2.85139 78.472C2.64872 78.4667 2.53672 78.464 2.51539 78.464C2.52072 78.9973 2.53139 79.5173 2.54739 80.024ZM2.50739 77.504C2.56605 77.504 2.68339 77.5067 2.85939 77.512C3.03539 77.512 3.15005 77.512 3.20339 77.512C3.26205 77.5067 3.35005 77.4987 3.46739 77.488C3.58472 77.4773 3.68605 77.464 3.77139 77.448C3.85672 77.4267 3.94205 77.3973 4.02739 77.36C4.18739 77.2853 4.31539 77.2 4.41139 77.104C4.50739 77.008 4.56339 76.9147 4.57939 76.824C4.62205 76.6853 4.51005 76.5333 4.24339 76.368C4.04072 76.2453 3.78205 76.1813 3.46739 76.176C3.15805 76.1707 2.84339 76.2 2.52339 76.264C2.51272 76.6587 2.50739 77.072 2.50739 77.504ZM10.6088 81.008C9.7661 81.008 8.68343 80.9947 7.36076 80.968C7.2221 80.968 7.10476 80.92 7.00876 80.824C6.91276 80.7227 6.86743 80.6027 6.87276 80.464C6.87276 80.416 6.8781 80.3707 6.88876 80.328C6.7181 78.9253 6.6461 77.4587 6.67276 75.928C6.6621 75.88 6.65676 75.8293 6.65676 75.776C6.65676 75.6427 6.70476 75.528 6.80076 75.432C6.9021 75.3307 7.0221 75.2827 7.16076 75.288C7.75276 75.2933 8.8621 75.296 10.4888 75.296C10.6274 75.296 10.7448 75.344 10.8408 75.44C10.9368 75.536 10.9848 75.6533 10.9848 75.792C10.9848 75.9307 10.9368 76.048 10.8408 76.144C10.7448 76.24 10.6274 76.288 10.4888 76.288H7.66476C7.66476 76.72 7.6701 77.1387 7.68076 77.544C8.20876 77.5547 9.0701 77.5467 10.2648 77.52C10.3981 77.5147 10.5154 77.56 10.6168 77.656C10.7181 77.752 10.7688 77.8693 10.7688 78.008C10.7741 78.1413 10.7288 78.2587 10.6328 78.36C10.5368 78.4613 10.4194 78.512 10.2808 78.512C9.1181 78.5387 8.26743 78.5493 7.72876 78.544C7.76076 78.9867 7.80076 79.4667 7.84876 79.984C8.9261 80.0053 9.8461 80.016 10.6088 80.016C10.7474 80.016 10.8648 80.064 10.9608 80.16C11.0568 80.256 11.1048 80.3733 11.1048 80.512C11.1048 80.6507 11.0568 80.768 10.9608 80.864C10.8648 80.96 10.7474 81.008 10.6088 81.008ZM12.0517 80.536C12.025 80.0667 11.9957 79.2587 11.9637 78.112C11.953 78.064 11.9477 78.016 11.9477 77.968C11.9477 77.9253 11.9504 77.8853 11.9557 77.848C11.929 76.936 11.8997 76.248 11.8677 75.784C11.857 75.6453 11.897 75.5253 11.9877 75.424C12.0784 75.3173 12.193 75.2613 12.3317 75.256C12.4704 75.2453 12.5904 75.2853 12.6917 75.376C12.7984 75.4667 12.8544 75.5813 12.8597 75.72C12.8917 76.136 12.921 76.72 12.9477 77.472C13.241 77.472 13.689 77.4747 14.2917 77.48C14.8944 77.4853 15.3477 77.488 15.6517 77.488C15.673 76.864 15.7024 76.2613 15.7397 75.68C15.745 75.5413 15.7984 75.4267 15.8997 75.336C16.0064 75.2453 16.129 75.2053 16.2677 75.216C16.4064 75.2213 16.521 75.2773 16.6117 75.384C16.7024 75.4853 16.7424 75.6053 16.7317 75.744C16.641 77.2213 16.5957 78.8133 16.5957 80.52C16.5957 80.6587 16.5477 80.776 16.4517 80.872C16.3557 80.968 16.2384 81.016 16.0997 81.016C15.961 81.016 15.8437 80.968 15.7477 80.872C15.6517 80.776 15.6037 80.6587 15.6037 80.52C15.6037 79.848 15.609 79.1707 15.6197 78.488C15.3264 78.488 14.8837 78.4853 14.2917 78.48C13.705 78.4747 13.265 78.472 12.9717 78.472C12.9984 79.336 13.0224 80.008 13.0437 80.488C13.0544 80.6267 13.0117 80.7467 12.9157 80.848C12.825 80.9493 12.7104 81.0027 12.5717 81.008C12.433 81.0187 12.313 80.9787 12.2117 80.888C12.1104 80.792 12.057 80.6747 12.0517 80.536ZM20.2102 80.52C20.2102 80.6587 20.1595 80.776 20.0582 80.872C19.9622 80.968 19.8449 81.0133 19.7062 81.008C19.5675 81.008 19.4502 80.96 19.3542 80.864C19.2582 80.7627 19.2129 80.6427 19.2182 80.504C19.2609 78.408 19.2822 77.0107 19.2822 76.312L17.8822 76.28C17.7435 76.28 17.6262 76.232 17.5302 76.136C17.4342 76.0347 17.3862 75.9147 17.3862 75.776C17.3915 75.6373 17.4422 75.52 17.5382 75.424C17.6395 75.328 17.7595 75.2827 17.8982 75.288C18.2875 75.2933 18.8955 75.304 19.7222 75.32C20.5542 75.336 21.1862 75.3493 21.6182 75.36C21.7569 75.36 21.8742 75.4107 21.9702 75.512C22.0662 75.608 22.1115 75.7253 22.1062 75.864C22.1062 76.0027 22.0555 76.12 21.9542 76.216C21.8582 76.312 21.7409 76.3573 21.6022 76.352C21.2342 76.3467 20.7915 76.3387 20.2742 76.328C20.2742 77.032 20.2529 78.4293 20.2102 80.52ZM23.472 80.936C23.3707 81.0107 23.256 81.0373 23.128 81.016C23.0053 81 22.9067 80.9413 22.832 80.84C22.752 80.7333 22.7253 80.6133 22.752 80.48V80.464C22.816 79.7067 22.8453 78.92 22.84 78.104C22.8347 77.288 22.7787 76.5147 22.672 75.784C22.6507 75.656 22.6773 75.5413 22.752 75.44C22.8267 75.3387 22.9253 75.28 23.048 75.264C23.176 75.2427 23.2907 75.2693 23.392 75.344C23.4933 75.4187 23.552 75.5173 23.568 75.64C23.7387 76.7493 23.7893 78.0453 23.72 79.528C23.944 79.3093 24.16 79.0747 24.368 78.824C24.576 78.568 24.9627 78.04 25.528 77.24L26.64 75.456C26.704 75.3493 26.7973 75.2827 26.92 75.256C27.0427 75.224 27.1573 75.2427 27.264 75.312C27.3547 75.3653 27.416 75.44 27.448 75.536C27.4853 75.6267 27.4907 75.72 27.464 75.816V75.832C27.4587 76.1733 27.44 76.5893 27.408 77.08C27.376 77.5653 27.3467 77.9653 27.32 78.28C27.2987 78.5893 27.296 78.9573 27.312 79.384C27.328 79.8107 27.3707 80.1787 27.44 80.488C27.4667 80.6107 27.4427 80.7253 27.368 80.832C27.2987 80.9333 27.2027 80.9973 27.08 81.024C26.9573 81.0507 26.8427 81.0293 26.736 80.96C26.6347 80.8853 26.5707 80.7867 26.544 80.664C26.448 80.2267 26.3973 79.7093 26.392 79.112C26.3867 78.5147 26.408 77.9707 26.456 77.48C26.232 77.848 26.0213 78.1627 25.824 78.424C25.632 78.68 25.4107 78.968 25.16 79.288C24.9093 79.608 24.64 79.9067 24.352 80.184C24.0693 80.4613 23.776 80.712 23.472 80.936ZM28.8002 81.056C28.7949 81.056 28.7362 81.048 28.6242 81.032C28.5762 81.0267 28.5389 81.024 28.5122 81.024C28.3842 81.024 28.2749 80.9813 28.1842 80.896C28.0989 80.8053 28.0562 80.696 28.0562 80.568C28.0562 80.44 28.0989 80.3333 28.1842 80.248C28.2749 80.1573 28.3842 80.112 28.5122 80.112C28.5709 80.112 28.6429 80.1173 28.7282 80.128C28.7335 80.128 28.7549 80.1307 28.7922 80.136C28.8295 80.136 28.8589 80.1387 28.8802 80.144C28.9229 80.1493 28.9549 80.1493 28.9762 80.144C29.0349 80.0533 29.0829 79.9413 29.1202 79.808C29.1949 79.5413 29.2455 79.176 29.2722 78.712C29.3149 78.1467 29.3122 77.5147 29.2642 76.816C29.2589 76.7573 29.2349 76.5653 29.1922 76.24C29.1762 76.096 29.1655 75.992 29.1602 75.928C29.1549 75.8747 29.1522 75.832 29.1522 75.8C29.1469 75.7733 29.1469 75.7467 29.1522 75.72C29.1522 75.6933 29.1549 75.6667 29.1602 75.64C29.1815 75.5493 29.2269 75.472 29.2962 75.408C29.3335 75.376 29.3735 75.3493 29.4162 75.328C29.4589 75.3067 29.4909 75.296 29.5122 75.296L29.5522 75.288C29.5735 75.2827 29.6029 75.28 29.6402 75.28C29.6829 75.2747 29.7389 75.272 29.8082 75.272C29.9149 75.2667 30.0562 75.2667 30.2322 75.272C30.5095 75.2773 30.7202 75.2827 30.8642 75.288C30.9282 75.288 31.0295 75.2933 31.1682 75.304L31.4962 75.328H31.5122C31.5175 75.328 31.5229 75.328 31.5282 75.328C31.5389 75.3227 31.5575 75.3173 31.5842 75.312C31.6109 75.3067 31.6429 75.3013 31.6802 75.296C31.9095 75.264 32.1015 75.304 32.2562 75.416C32.5175 75.608 32.6642 75.9147 32.6962 76.336C32.7069 76.4533 32.7095 76.5893 32.7042 76.744C32.7042 76.7707 32.7015 76.816 32.6962 76.88C32.6909 76.944 32.6882 76.992 32.6882 77.024V78.848C32.6882 79.5947 32.6669 80.1787 32.6242 80.6C32.6135 80.7227 32.5602 80.8267 32.4642 80.912C32.3682 80.992 32.2562 81.0267 32.1282 81.016C32.0055 81.0053 31.9015 80.952 31.8162 80.856C31.7362 80.76 31.7015 80.648 31.7122 80.52C31.7495 80.1253 31.7709 79.568 31.7762 78.848V77.008C31.7762 76.976 31.7762 76.9227 31.7762 76.848C31.7815 76.7733 31.7869 76.7253 31.7922 76.704C31.7975 76.5867 31.7949 76.488 31.7842 76.408C31.7789 76.328 31.7682 76.264 31.7522 76.216C31.6295 76.2373 31.5335 76.2453 31.4642 76.24C31.3895 76.24 31.2802 76.2347 31.1362 76.224L30.8162 76.2C30.6829 76.1947 30.4855 76.1893 30.2242 76.184H30.1122C30.1495 76.488 30.1709 76.6773 30.1762 76.752C30.2242 77.5093 30.2269 78.1813 30.1842 78.768C30.1522 79.2907 30.0909 79.7173 30.0002 80.048C29.8615 80.5547 29.6375 80.8693 29.3282 80.992C29.1789 81.0507 29.0029 81.072 28.8002 81.056ZM34.5553 80.696C34.518 80.8187 34.4433 80.9093 34.3313 80.968C34.2247 81.0267 34.11 81.0373 33.9873 81C33.8647 80.968 33.774 80.8987 33.7153 80.792C33.6567 80.68 33.6433 80.5627 33.6753 80.44C33.9527 79.56 34.262 78.92 34.6033 78.52C34.3953 78.4133 34.2273 78.2827 34.0993 78.128C33.982 77.9893 33.8967 77.8267 33.8433 77.64C33.79 77.448 33.7687 77.264 33.7793 77.088C33.79 76.912 33.8247 76.7493 33.8833 76.6C34.182 75.8373 34.8327 75.392 35.8353 75.264C36.0487 75.2373 36.2753 75.224 36.5153 75.224C36.7607 75.224 37.038 75.232 37.3473 75.248C37.6567 75.264 37.8407 75.272 37.8993 75.272C37.9313 75.2667 37.966 75.264 38.0033 75.264C38.126 75.2693 38.23 75.32 38.3153 75.416C38.4007 75.5067 38.4407 75.616 38.4353 75.744C38.4087 76.384 38.3953 77.1627 38.3953 78.08C38.4593 78.176 38.4807 78.2827 38.4593 78.4C38.454 78.464 38.4327 78.5227 38.3953 78.576C38.3953 79.488 38.3873 80.1653 38.3713 80.608C38.366 80.736 38.318 80.8427 38.2273 80.928C38.1367 81.0133 38.0273 81.0533 37.8993 81.048C37.7713 81.0427 37.6647 80.9947 37.5793 80.904C37.494 80.8133 37.454 80.704 37.4593 80.576C37.4753 80.1653 37.4833 79.5973 37.4833 78.872C37.462 78.872 37.39 78.8747 37.2673 78.88C37.1447 78.88 37.046 78.88 36.9713 78.88C36.582 78.88 36.2513 78.8693 35.9793 78.848C35.8673 78.8373 35.7607 78.8267 35.6593 78.816L35.6273 78.832C35.4193 78.9547 35.23 79.1627 35.0593 79.456C34.894 79.7493 34.726 80.1627 34.5553 80.696ZM35.5553 77.872C36.014 77.7173 36.6567 77.6907 37.4833 77.792C37.4833 77.1467 37.4913 76.6053 37.5073 76.168C36.7553 76.136 36.2353 76.1387 35.9473 76.176C35.622 76.2133 35.3607 76.2933 35.1633 76.416C34.966 76.5333 34.822 76.7067 34.7313 76.936C34.694 77.0373 34.6807 77.1493 34.6913 77.272C34.7073 77.3893 34.7393 77.4773 34.7873 77.536C34.9207 77.6853 35.1767 77.7973 35.5553 77.872ZM44.1926 81.688C44.2352 81.256 44.2566 81.032 44.2566 81.016C43.5206 80.968 42.3259 80.9653 40.6726 81.008C40.5179 81.0027 40.3872 80.9947 40.2806 80.984C40.2112 80.9787 40.1499 80.968 40.0966 80.952C39.9846 80.9253 39.8912 80.8773 39.8166 80.808C39.7846 80.776 39.7552 80.7387 39.7286 80.696C39.7072 80.6533 39.6939 80.6187 39.6886 80.592L39.6806 80.552C39.6752 80.5253 39.6726 80.496 39.6726 80.464C39.6672 80.4213 39.6646 80.368 39.6646 80.304C39.6592 80.208 39.6699 79.632 39.6966 78.576C39.7232 77.52 39.7179 76.56 39.6806 75.696C39.6752 75.568 39.7152 75.4587 39.8006 75.368C39.8859 75.272 39.9899 75.2213 40.1126 75.216C40.2406 75.2107 40.3499 75.2507 40.4406 75.336C40.5366 75.4213 40.5872 75.5253 40.5926 75.648C40.6299 76.4853 40.6246 77.9653 40.5766 80.088C40.6086 80.0933 40.6486 80.096 40.6966 80.096C41.9872 80.048 42.9259 80.0347 43.5126 80.056C43.5499 77.7733 43.5659 76.5333 43.5606 76.336C43.5552 76.1387 43.5392 75.96 43.5126 75.8C43.4966 75.672 43.5259 75.56 43.6006 75.464C43.6806 75.3627 43.7819 75.304 43.9046 75.288C44.0326 75.2667 44.1446 75.296 44.2406 75.376C44.3419 75.4507 44.4032 75.5493 44.4246 75.672C44.4459 75.8533 44.4592 76.0587 44.4646 76.288C44.4752 76.5173 44.4619 77.7893 44.4246 80.104C44.5206 80.1147 44.6166 80.1227 44.7126 80.128C44.8086 80.1333 44.8939 80.168 44.9686 80.232C45.1019 80.3227 45.1686 80.448 45.1686 80.608C45.1152 81.5147 45.0379 82.008 44.9366 82.088C44.8406 82.168 44.7286 82.2027 44.6006 82.192C44.4779 82.1813 44.3766 82.1253 44.2966 82.024C44.2166 81.928 44.1819 81.816 44.1926 81.688ZM46.7064 80.936C46.6051 81.0107 46.4904 81.0373 46.3624 81.016C46.2397 81 46.1411 80.9413 46.0664 80.84C45.9864 80.7333 45.9597 80.6133 45.9864 80.48V80.464C46.0504 79.7067 46.0797 78.92 46.0744 78.104C46.0691 77.288 46.0131 76.5147 45.9064 75.784C45.8851 75.656 45.9117 75.5413 45.9864 75.44C46.0611 75.3387 46.1597 75.28 46.2824 75.264C46.4104 75.2427 46.5251 75.2693 46.6264 75.344C46.7277 75.4187 46.7864 75.5173 46.8024 75.64C46.9731 76.7493 47.0237 78.0453 46.9544 79.528C47.1784 79.3093 47.3944 79.0747 47.6024 78.824C47.8104 78.568 48.1971 78.04 48.7624 77.24L49.8744 75.456C49.9384 75.3493 50.0317 75.2827 50.1544 75.256C50.2771 75.224 50.3917 75.2427 50.4984 75.312C50.5891 75.3653 50.6504 75.44 50.6824 75.536C50.7197 75.6267 50.7251 75.72 50.6984 75.816V75.832C50.6931 76.1733 50.6744 76.5893 50.6424 77.08C50.6104 77.5653 50.5811 77.9653 50.5544 78.28C50.5331 78.5893 50.5304 78.9573 50.5464 79.384C50.5624 79.8107 50.6051 80.1787 50.6744 80.488C50.7011 80.6107 50.6771 80.7253 50.6024 80.832C50.5331 80.9333 50.4371 80.9973 50.3144 81.024C50.1917 81.0507 50.0771 81.0293 49.9704 80.96C49.8691 80.8853 49.8051 80.7867 49.7784 80.664C49.6824 80.2267 49.6317 79.7093 49.6264 79.112C49.6211 78.5147 49.6424 77.9707 49.6904 77.48C49.4664 77.848 49.2557 78.1627 49.0584 78.424C48.8664 78.68 48.6451 78.968 48.3944 79.288C48.1437 79.608 47.8744 79.9067 47.5864 80.184C47.3037 80.4613 47.0104 80.712 46.7064 80.936ZM52.5866 80.696C52.5492 80.8187 52.4746 80.9093 52.3626 80.968C52.2559 81.0267 52.1412 81.0373 52.0186 81C51.8959 80.968 51.8052 80.8987 51.7466 80.792C51.6879 80.68 51.6746 80.5627 51.7066 80.44C51.9839 79.56 52.2932 78.92 52.6346 78.52C52.4266 78.4133 52.2586 78.2827 52.1306 78.128C52.0132 77.9893 51.9279 77.8267 51.8746 77.64C51.8212 77.448 51.7999 77.264 51.8106 77.088C51.8212 76.912 51.8559 76.7493 51.9146 76.6C52.2132 75.8373 52.8639 75.392 53.8666 75.264C54.0799 75.2373 54.3066 75.224 54.5466 75.224C54.7919 75.224 55.0692 75.232 55.3786 75.248C55.6879 75.264 55.8719 75.272 55.9306 75.272C55.9626 75.2667 55.9972 75.264 56.0346 75.264C56.1572 75.2693 56.2612 75.32 56.3466 75.416C56.4319 75.5067 56.4719 75.616 56.4666 75.744C56.4399 76.384 56.4266 77.1627 56.4266 78.08C56.4906 78.176 56.5119 78.2827 56.4906 78.4C56.4852 78.464 56.4639 78.5227 56.4266 78.576C56.4266 79.488 56.4186 80.1653 56.4026 80.608C56.3972 80.736 56.3492 80.8427 56.2586 80.928C56.1679 81.0133 56.0586 81.0533 55.9306 81.048C55.8026 81.0427 55.6959 80.9947 55.6106 80.904C55.5252 80.8133 55.4852 80.704 55.4906 80.576C55.5066 80.1653 55.5146 79.5973 55.5146 78.872C55.4932 78.872 55.4212 78.8747 55.2986 78.88C55.1759 78.88 55.0772 78.88 55.0026 78.88C54.6132 78.88 54.2826 78.8693 54.0106 78.848C53.8986 78.8373 53.7919 78.8267 53.6906 78.816L53.6586 78.832C53.4506 78.9547 53.2612 79.1627 53.0906 79.456C52.9252 79.7493 52.7572 80.1627 52.5866 80.696ZM53.5866 77.872C54.0452 77.7173 54.6879 77.6907 55.5146 77.792C55.5146 77.1467 55.5226 76.6053 55.5386 76.168C54.7866 76.136 54.2666 76.1387 53.9786 76.176C53.6532 76.2133 53.3919 76.2933 53.1946 76.416C52.9972 76.5333 52.8532 76.7067 52.7626 76.936C52.7252 77.0373 52.7119 77.1493 52.7226 77.272C52.7386 77.3893 52.7706 77.4773 52.8186 77.536C52.9519 77.6853 53.2079 77.7973 53.5866 77.872ZM58.0238 79.368C57.8745 79.368 57.7492 79.3173 57.6478 79.216C57.5465 79.1093 57.4958 78.984 57.4958 78.84C57.4958 78.696 57.5465 78.5733 57.6478 78.472C57.7492 78.3653 57.8745 78.312 58.0238 78.312H59.4398C59.5892 78.312 59.7145 78.3653 59.8158 78.472C59.9172 78.5733 59.9678 78.696 59.9678 78.84C59.9678 78.984 59.9172 79.1093 59.8158 79.216C59.7145 79.3173 59.5892 79.368 59.4398 79.368H58.0238ZM64.7453 80.856C64.6813 80.7813 64.6093 80.704 64.5293 80.624L64.1773 80.256C64.0759 80.144 63.9826 80.0373 63.8973 79.936C63.7213 79.728 63.4839 79.4027 63.1853 78.96L62.8253 78.448L62.0333 79.128C62.0493 79.6027 62.0733 80.0507 62.1053 80.472C62.1159 80.6107 62.0759 80.7333 61.9853 80.84C61.8946 80.9413 61.7799 80.9973 61.6413 81.008C61.5079 81.0187 61.3879 80.9787 61.2813 80.888C61.1799 80.7973 61.1239 80.6853 61.1133 80.552C61.0813 80.1253 61.0546 79.6667 61.0333 79.176C60.9533 79.0267 60.9506 78.8747 61.0253 78.72C61.0093 78.1173 61.0013 77.1253 61.0013 75.744C61.0013 75.6053 61.0493 75.488 61.1453 75.392C61.2413 75.296 61.3586 75.248 61.4973 75.248C61.6359 75.248 61.7533 75.296 61.8493 75.392C61.9453 75.488 61.9933 75.6053 61.9933 75.744C61.9933 76.7787 61.9959 77.48 62.0013 77.848C62.6679 77.2613 63.4893 76.4613 64.4653 75.448C64.5613 75.3467 64.6759 75.2933 64.8093 75.288C64.9479 75.2827 65.0679 75.328 65.1693 75.424C65.2706 75.5147 65.3239 75.6293 65.3293 75.768C65.3346 75.9013 65.2919 76.0187 65.2013 76.12C64.5559 76.7813 64.0093 77.328 63.5613 77.76C63.6733 77.9093 63.8226 78.1227 64.0093 78.4C64.2919 78.8107 64.5106 79.1093 64.6653 79.296C64.7506 79.3973 64.8439 79.5013 64.9453 79.608L65.2733 79.952L65.5613 80.248C65.6359 80.328 65.6599 80.4293 65.6333 80.552C65.6119 80.6747 65.5666 80.784 65.4973 80.88C65.4279 80.9707 65.3079 81.0133 65.1373 81.008C64.9719 81.0027 64.8413 80.952 64.7453 80.856ZM68.9095 80.984C68.4935 81.0427 68.1068 81.0267 67.7495 80.936C67.3922 80.84 67.0882 80.688 66.8375 80.48C66.5868 80.2667 66.3788 80.0213 66.2135 79.744C66.0482 79.4613 65.9335 79.1573 65.8695 78.832C65.8215 78.576 65.7975 78.3333 65.7975 78.104C65.7975 77.8693 65.8322 77.6187 65.9015 77.352C65.9762 77.0853 66.0748 76.8347 66.1975 76.6C66.3255 76.3653 66.4908 76.1467 66.6935 75.944C66.8962 75.736 67.1282 75.56 67.3895 75.416C67.4375 75.336 67.5068 75.2747 67.5975 75.232C67.6882 75.1893 67.7842 75.1733 67.8855 75.184L68.0135 75.2C68.0455 75.1947 68.0828 75.1867 68.1255 75.176C68.1682 75.1653 68.2002 75.1573 68.2215 75.152C68.2482 75.1467 68.2695 75.1413 68.2855 75.136C68.4882 75.0773 68.6615 75.128 68.8055 75.288C68.9228 75.2987 69.0215 75.3173 69.1015 75.344C69.2775 75.392 69.4348 75.4747 69.5735 75.592C69.7015 75.6987 69.8828 75.8773 70.1175 76.128C70.4055 76.4373 70.6108 76.7067 70.7335 76.936C70.8935 77.2347 71.0002 77.5467 71.0535 77.872C71.1122 78.1973 71.1068 78.5333 71.0375 78.88C70.9682 79.2213 70.8482 79.5413 70.6775 79.84C70.5122 80.1333 70.2748 80.384 69.9655 80.592C69.6615 80.7947 69.3095 80.9253 68.9095 80.984ZM68.7655 79.992C69.0482 79.9547 69.2962 79.8453 69.5095 79.664C69.7228 79.4827 69.8775 79.2693 69.9735 79.024C70.0695 78.7733 70.1095 78.496 70.0935 78.192C70.0828 77.9467 70.0028 77.688 69.8535 77.416C69.7628 77.2453 69.6055 77.04 69.3815 76.8C69.0935 76.4907 68.9068 76.3253 68.8215 76.304C68.7788 76.288 68.6722 76.272 68.5015 76.256L68.0695 76.216C67.9948 76.2373 67.9282 76.264 67.8695 76.296C67.4482 76.52 67.1468 76.8587 66.9655 77.312C66.7842 77.7653 66.7442 78.2027 66.8455 78.624C66.9415 79.088 67.1548 79.4507 67.4855 79.712C67.8162 79.9733 68.2428 80.0667 68.7655 79.992ZM72.1298 80.536C72.1032 80.0667 72.0738 79.2587 72.0418 78.112C72.0312 78.064 72.0258 78.016 72.0258 77.968C72.0258 77.9253 72.0285 77.8853 72.0338 77.848C72.0072 76.936 71.9778 76.248 71.9458 75.784C71.9352 75.6453 71.9752 75.5253 72.0658 75.424C72.1565 75.3173 72.2712 75.2613 72.4098 75.256C72.5485 75.2453 72.6685 75.2853 72.7698 75.376C72.8765 75.4667 72.9325 75.5813 72.9378 75.72C72.9698 76.136 72.9992 76.72 73.0258 77.472C73.3192 77.472 73.7672 77.4747 74.3698 77.48C74.9725 77.4853 75.4258 77.488 75.7298 77.488C75.7512 76.864 75.7805 76.2613 75.8178 75.68C75.8232 75.5413 75.8765 75.4267 75.9778 75.336C76.0845 75.2453 76.2072 75.2053 76.3458 75.216C76.4845 75.2213 76.5992 75.2773 76.6898 75.384C76.7805 75.4853 76.8205 75.6053 76.8098 75.744C76.7192 77.2213 76.6738 78.8133 76.6738 80.52C76.6738 80.6587 76.6258 80.776 76.5298 80.872C76.4338 80.968 76.3165 81.016 76.1778 81.016C76.0392 81.016 75.9218 80.968 75.8258 80.872C75.7298 80.776 75.6818 80.6587 75.6818 80.52C75.6818 79.848 75.6872 79.1707 75.6978 78.488C75.4045 78.488 74.9618 78.4853 74.3698 78.48C73.7832 78.4747 73.3432 78.472 73.0498 78.472C73.0765 79.336 73.1005 80.008 73.1218 80.488C73.1325 80.6267 73.0898 80.7467 72.9938 80.848C72.9032 80.9493 72.7885 81.0027 72.6498 81.008C72.5112 81.0187 72.3912 80.9787 72.2898 80.888C72.1885 80.792 72.1352 80.6747 72.1298 80.536ZM81.9843 81.704C81.9843 81.3253 81.987 81.0747 81.9923 80.952C81.443 80.9627 80.259 80.9787 78.4403 81C78.4403 81.0053 78.4697 81.184 78.5283 81.536C78.5497 81.664 78.523 81.7787 78.4483 81.88C78.379 81.9813 78.2803 82.0507 78.1523 82.088C78.0297 82.1253 77.9177 82.0987 77.8163 82.008C77.715 81.9227 77.6537 81.8187 77.6323 81.696L77.5763 81.408C77.5603 81.3067 77.5497 81.2507 77.5443 81.24C77.5443 81.2293 77.5417 81.1947 77.5363 81.136C77.531 81.0773 77.5283 81.04 77.5283 81.024C77.5283 81.008 77.5257 80.952 77.5203 80.856L77.5043 80.552C77.499 80.4347 77.5337 80.3307 77.6083 80.24C77.683 80.144 77.779 80.088 77.8963 80.072C78.531 78.8293 78.7737 77.4213 78.6243 75.848V75.816C78.619 75.7787 78.6163 75.744 78.6163 75.712C78.6217 75.584 78.6697 75.4773 78.7603 75.392C78.8563 75.3067 78.9657 75.2667 79.0883 75.272H81.2563C81.379 75.2773 81.475 75.28 81.5443 75.28C81.587 75.2853 81.6217 75.288 81.6483 75.288C81.675 75.2933 81.6963 75.296 81.7123 75.296C81.771 75.3067 81.8297 75.3307 81.8883 75.368C82.1603 75.5493 82.2963 75.8667 82.2963 76.32C82.2963 76.4267 82.291 76.5573 82.2803 76.712C82.2643 76.8453 82.2563 76.9173 82.2563 76.928C82.2403 77.392 82.259 77.984 82.3123 78.704C82.3177 78.816 82.331 79.0213 82.3523 79.32C82.379 79.6187 82.3977 79.856 82.4083 80.032H82.4483C82.571 80.032 82.675 80.072 82.7603 80.152C82.851 80.232 82.9017 80.3307 82.9123 80.448C82.9177 80.4853 82.9203 80.5227 82.9203 80.56C82.9043 80.976 82.8963 81.3573 82.8963 81.704C82.8963 81.832 82.851 81.9387 82.7603 82.024C82.675 82.1147 82.5683 82.16 82.4403 82.16C82.3123 82.16 82.203 82.1147 82.1123 82.024C82.027 81.9387 81.9843 81.832 81.9843 81.704ZM78.9043 80.072C80.1043 80.0667 80.9683 80.0587 81.4963 80.048C81.4857 79.8827 81.467 79.6587 81.4403 79.376C81.419 79.088 81.4057 78.8827 81.4003 78.76C81.347 78.0133 81.3283 77.392 81.3443 76.896C81.3443 76.8853 81.3523 76.792 81.3683 76.616C81.379 76.4987 81.3843 76.4027 81.3843 76.328C81.3843 76.2747 81.3817 76.2293 81.3763 76.192H81.2403C81.0537 76.1867 80.7817 76.184 80.4243 76.184H79.5683C79.6483 77.6133 79.427 78.9093 78.9043 80.072ZM84.4017 80.936C84.3004 81.0107 84.1857 81.0373 84.0577 81.016C83.935 81 83.8364 80.9413 83.7617 80.84C83.6817 80.7333 83.655 80.6133 83.6817 80.48V80.464C83.7457 79.7067 83.775 78.92 83.7697 78.104C83.7644 77.288 83.7084 76.5147 83.6017 75.784C83.5804 75.656 83.607 75.5413 83.6817 75.44C83.7564 75.3387 83.855 75.28 83.9777 75.264C84.1057 75.2427 84.2204 75.2693 84.3217 75.344C84.423 75.4187 84.4817 75.5173 84.4977 75.64C84.6684 76.7493 84.719 78.0453 84.6497 79.528C84.8737 79.3093 85.0897 79.0747 85.2977 78.824C85.5057 78.568 85.8924 78.04 86.4577 77.24L87.5697 75.456C87.6337 75.3493 87.727 75.2827 87.8497 75.256C87.9724 75.224 88.087 75.2427 88.1937 75.312C88.2844 75.3653 88.3457 75.44 88.3777 75.536C88.415 75.6267 88.4204 75.72 88.3937 75.816V75.832C88.3884 76.1733 88.3697 76.5893 88.3377 77.08C88.3057 77.5653 88.2764 77.9653 88.2497 78.28C88.2284 78.5893 88.2257 78.9573 88.2417 79.384C88.2577 79.8107 88.3004 80.1787 88.3697 80.488C88.3964 80.6107 88.3724 80.7253 88.2977 80.832C88.2284 80.9333 88.1324 80.9973 88.0097 81.024C87.887 81.0507 87.7724 81.0293 87.6657 80.96C87.5644 80.8853 87.5004 80.7867 87.4737 80.664C87.3777 80.2267 87.327 79.7093 87.3217 79.112C87.3164 78.5147 87.3377 77.9707 87.3857 77.48C87.1617 77.848 86.951 78.1627 86.7537 78.424C86.5617 78.68 86.3404 78.968 86.0897 79.288C85.839 79.608 85.5697 79.9067 85.2817 80.184C84.999 80.4613 84.7057 80.712 84.4017 80.936ZM94.1379 81.688C94.1806 81.256 94.2019 81.032 94.2019 81.016C93.4659 80.968 92.2712 80.9653 90.6179 81.008C90.4632 81.0027 90.3326 80.9947 90.2259 80.984C90.1566 80.9787 90.0952 80.968 90.0419 80.952C89.9299 80.9253 89.8366 80.8773 89.7619 80.808C89.7299 80.776 89.7006 80.7387 89.6739 80.696C89.6526 80.6533 89.6392 80.6187 89.6339 80.592L89.6259 80.552C89.6206 80.5253 89.6179 80.496 89.6179 80.464C89.6126 80.4213 89.6099 80.368 89.6099 80.304C89.6046 80.208 89.6152 79.632 89.6419 78.576C89.6686 77.52 89.6632 76.56 89.6259 75.696C89.6206 75.568 89.6606 75.4587 89.7459 75.368C89.8312 75.272 89.9352 75.2213 90.0579 75.216C90.1859 75.2107 90.2952 75.2507 90.3859 75.336C90.4819 75.4213 90.5326 75.5253 90.5379 75.648C90.5752 76.4853 90.5699 77.9653 90.5219 80.088C90.5539 80.0933 90.5939 80.096 90.6419 80.096C91.9326 80.048 92.8712 80.0347 93.4579 80.056C93.4952 77.7733 93.5112 76.5333 93.5059 76.336C93.5006 76.1387 93.4846 75.96 93.4579 75.8C93.4419 75.672 93.4712 75.56 93.5459 75.464C93.6259 75.3627 93.7272 75.304 93.8499 75.288C93.9779 75.2667 94.0899 75.296 94.1859 75.376C94.2872 75.4507 94.3486 75.5493 94.3699 75.672C94.3912 75.8533 94.4046 76.0587 94.4099 76.288C94.4206 76.5173 94.4072 77.7893 94.3699 80.104C94.4659 80.1147 94.5619 80.1227 94.6579 80.128C94.7539 80.1333 94.8392 80.168 94.9139 80.232C95.0472 80.3227 95.1139 80.448 95.1139 80.608C95.0606 81.5147 94.9832 82.008 94.8819 82.088C94.7859 82.168 94.6739 82.2027 94.5459 82.192C94.4232 82.1813 94.3219 82.1253 94.2419 82.024C94.1619 81.928 94.1272 81.816 94.1379 81.688ZM96.6517 80.936C96.5504 81.0107 96.4357 81.0373 96.3077 81.016C96.185 81 96.0864 80.9413 96.0117 80.84C95.9317 80.7333 95.905 80.6133 95.9317 80.48V80.464C95.9957 79.7067 96.025 78.92 96.0197 78.104C96.0144 77.288 95.9584 76.5147 95.8517 75.784C95.8304 75.656 95.857 75.5413 95.9317 75.44C96.0064 75.3387 96.105 75.28 96.2277 75.264C96.3557 75.2427 96.4704 75.2693 96.5717 75.344C96.673 75.4187 96.7317 75.5173 96.7477 75.64C96.9184 76.7493 96.969 78.0453 96.8997 79.528C97.1237 79.3093 97.3397 79.0747 97.5477 78.824C97.7557 78.568 98.1424 78.04 98.7077 77.24L99.8197 75.456C99.8837 75.3493 99.977 75.2827 100.1 75.256C100.222 75.224 100.337 75.2427 100.444 75.312C100.534 75.3653 100.596 75.44 100.628 75.536C100.665 75.6267 100.67 75.72 100.644 75.816V75.832C100.638 76.1733 100.62 76.5893 100.588 77.08C100.556 77.5653 100.526 77.9653 100.5 78.28C100.478 78.5893 100.476 78.9573 100.492 79.384C100.508 79.8107 100.55 80.1787 100.62 80.488C100.646 80.6107 100.622 80.7253 100.548 80.832C100.478 80.9333 100.382 80.9973 100.26 81.024C100.137 81.0507 100.022 81.0293 99.9157 80.96C99.8144 80.8853 99.7504 80.7867 99.7237 80.664C99.6277 80.2267 99.577 79.7093 99.5717 79.112C99.5664 78.5147 99.5877 77.9707 99.6357 77.48C99.4117 77.848 99.201 78.1627 99.0037 78.424C98.8117 78.68 98.5904 78.968 98.3397 79.288C98.089 79.608 97.8197 79.9067 97.5317 80.184C97.249 80.4613 96.9557 80.712 96.6517 80.936ZM104.55 80.984C104.134 81.0427 103.747 81.0267 103.39 80.936C103.033 80.84 102.729 80.688 102.478 80.48C102.227 80.2667 102.019 80.0213 101.854 79.744C101.689 79.4613 101.574 79.1573 101.51 78.832C101.462 78.576 101.438 78.3333 101.438 78.104C101.438 77.8693 101.473 77.6187 101.542 77.352C101.617 77.0853 101.715 76.8347 101.838 76.6C101.966 76.3653 102.131 76.1467 102.334 75.944C102.537 75.736 102.769 75.56 103.03 75.416C103.078 75.336 103.147 75.2747 103.238 75.232C103.329 75.1893 103.425 75.1733 103.526 75.184L103.654 75.2C103.686 75.1947 103.723 75.1867 103.766 75.176C103.809 75.1653 103.841 75.1573 103.862 75.152C103.889 75.1467 103.91 75.1413 103.926 75.136C104.129 75.0773 104.302 75.128 104.446 75.288C104.563 75.2987 104.662 75.3173 104.742 75.344C104.918 75.392 105.075 75.4747 105.214 75.592C105.342 75.6987 105.523 75.8773 105.758 76.128C106.046 76.4373 106.251 76.7067 106.374 76.936C106.534 77.2347 106.641 77.5467 106.694 77.872C106.753 78.1973 106.747 78.5333 106.678 78.88C106.609 79.2213 106.489 79.5413 106.318 79.84C106.153 80.1333 105.915 80.384 105.606 80.592C105.302 80.7947 104.95 80.9253 104.55 80.984ZM104.406 79.992C104.689 79.9547 104.937 79.8453 105.15 79.664C105.363 79.4827 105.518 79.2693 105.614 79.024C105.71 78.7733 105.75 78.496 105.734 78.192C105.723 77.9467 105.643 77.688 105.494 77.416C105.403 77.2453 105.246 77.04 105.022 76.8C104.734 76.4907 104.547 76.3253 104.462 76.304C104.419 76.288 104.313 76.272 104.142 76.256L103.71 76.216C103.635 76.2373 103.569 76.264 103.51 76.296C103.089 76.52 102.787 76.8587 102.606 77.312C102.425 77.7653 102.385 78.2027 102.486 78.624C102.582 79.088 102.795 79.4507 103.126 79.712C103.457 79.9733 103.883 80.0667 104.406 79.992ZM107.77 80.536C107.744 80.0667 107.714 79.2587 107.682 78.112C107.672 78.064 107.666 78.016 107.666 77.968C107.666 77.9253 107.669 77.8853 107.674 77.848C107.648 76.936 107.618 76.248 107.586 75.784C107.576 75.6453 107.616 75.5253 107.706 75.424C107.797 75.3173 107.912 75.2613 108.05 75.256C108.189 75.2453 108.309 75.2853 108.41 75.376C108.517 75.4667 108.573 75.5813 108.578 75.72C108.61 76.136 108.64 76.72 108.666 77.472C108.96 77.472 109.408 77.4747 110.01 77.48C110.613 77.4853 111.066 77.488 111.37 77.488C111.392 76.864 111.421 76.2613 111.458 75.68C111.464 75.5413 111.517 75.4267 111.618 75.336C111.725 75.2453 111.848 75.2053 111.986 75.216C112.125 75.2213 112.24 75.2773 112.33 75.384C112.421 75.4853 112.461 75.6053 112.45 75.744C112.36 77.2213 112.314 78.8133 112.314 80.52C112.314 80.6587 112.266 80.776 112.17 80.872C112.074 80.968 111.957 81.016 111.818 81.016C111.68 81.016 111.562 80.968 111.466 80.872C111.37 80.776 111.322 80.6587 111.322 80.52C111.322 79.848 111.328 79.1707 111.338 78.488C111.045 78.488 110.602 78.4853 110.01 78.48C109.424 78.4747 108.984 78.472 108.69 78.472C108.717 79.336 108.741 80.008 108.762 80.488C108.773 80.6267 108.73 80.7467 108.634 80.848C108.544 80.9493 108.429 81.0027 108.29 81.008C108.152 81.0187 108.032 80.9787 107.93 80.888C107.829 80.792 107.776 80.6747 107.77 80.536ZM114.433 80.936C114.332 81.0107 114.217 81.0373 114.089 81.016C113.966 81 113.868 80.9413 113.793 80.84C113.713 80.7333 113.686 80.6133 113.713 80.48V80.464C113.777 79.7067 113.806 78.92 113.801 78.104C113.796 77.288 113.74 76.5147 113.633 75.784C113.612 75.656 113.638 75.5413 113.713 75.44C113.788 75.3387 113.886 75.28 114.009 75.264C114.137 75.2427 114.252 75.2693 114.353 75.344C114.454 75.4187 114.513 75.5173 114.529 75.64C114.7 76.7493 114.75 78.0453 114.681 79.528C114.905 79.3093 115.121 79.0747 115.329 78.824C115.537 78.568 115.924 78.04 116.489 77.24L117.601 75.456C117.665 75.3493 117.758 75.2827 117.881 75.256C118.004 75.224 118.118 75.2427 118.225 75.312C118.316 75.3653 118.377 75.44 118.409 75.536C118.446 75.6267 118.452 75.72 118.425 75.816V75.832C118.42 76.1733 118.401 76.5893 118.369 77.08C118.337 77.5653 118.308 77.9653 118.281 78.28C118.26 78.5893 118.257 78.9573 118.273 79.384C118.289 79.8107 118.332 80.1787 118.401 80.488C118.428 80.6107 118.404 80.7253 118.329 80.832C118.26 80.9333 118.164 80.9973 118.041 81.024C117.918 81.0507 117.804 81.0293 117.697 80.96C117.596 80.8853 117.532 80.7867 117.505 80.664C117.409 80.2267 117.358 79.7093 117.353 79.112C117.348 78.5147 117.369 77.9707 117.417 77.48C117.193 77.848 116.982 78.1627 116.785 78.424C116.593 78.68 116.372 78.968 116.121 79.288C115.87 79.608 115.601 79.9067 115.313 80.184C115.03 80.4613 114.737 80.712 114.433 80.936ZM119.849 80.52C119.849 80.232 119.846 79.896 119.841 79.512C119.841 79.128 119.841 78.768 119.841 78.432C119.841 78.096 119.833 77.736 119.817 77.352C119.801 76.968 119.78 76.6053 119.753 76.264C119.662 76.184 119.609 76.0827 119.593 75.96C119.572 75.7787 119.628 75.632 119.761 75.52C119.846 75.3547 119.98 75.264 120.161 75.248C120.278 75.2373 120.388 75.264 120.489 75.328C120.724 75.2907 120.924 75.264 121.089 75.248C121.254 75.232 121.457 75.2213 121.697 75.216C121.942 75.2053 122.172 75.224 122.385 75.272C122.604 75.3147 122.806 75.3813 122.993 75.472C123.244 75.6 123.46 75.7867 123.641 76.032C123.828 76.272 123.956 76.5333 124.025 76.816C124.1 77.0933 124.084 77.3813 123.977 77.68C123.876 77.9787 123.678 78.2373 123.385 78.456C123.028 78.7227 122.529 78.856 121.889 78.856C121.692 78.856 121.457 78.8427 121.185 78.816C121.142 78.8107 121.028 78.7973 120.841 78.776V80.52C120.846 80.6533 120.798 80.7707 120.697 80.872C120.601 80.968 120.484 81.016 120.345 81.016C120.212 81.0213 120.094 80.976 119.993 80.88C119.897 80.7787 119.849 80.6587 119.849 80.52ZM121.897 77.856C122.313 77.856 122.612 77.7893 122.793 77.656C122.926 77.5547 123.009 77.424 123.041 77.264C123.078 77.0987 123.052 76.9333 122.961 76.768C122.876 76.5973 122.737 76.464 122.545 76.368C122.396 76.288 122.214 76.24 122.001 76.224C121.793 76.2027 121.606 76.2 121.441 76.216C121.276 76.232 121.049 76.2613 120.761 76.304C120.793 76.7467 120.814 77.2347 120.825 77.768C120.862 77.7733 120.932 77.7813 121.033 77.792C121.14 77.8027 121.225 77.8107 121.289 77.816C121.529 77.8427 121.732 77.856 121.897 77.856ZM127.535 80.984C127.119 81.0427 126.732 81.0267 126.375 80.936C126.017 80.84 125.713 80.688 125.463 80.48C125.212 80.2667 125.004 80.0213 124.839 79.744C124.673 79.4613 124.559 79.1573 124.495 78.832C124.447 78.576 124.423 78.3333 124.423 78.104C124.423 77.8693 124.457 77.6187 124.527 77.352C124.601 77.0853 124.7 76.8347 124.823 76.6C124.951 76.3653 125.116 76.1467 125.319 75.944C125.521 75.736 125.753 75.56 126.015 75.416C126.063 75.336 126.132 75.2747 126.223 75.232C126.313 75.1893 126.409 75.1733 126.511 75.184L126.639 75.2C126.671 75.1947 126.708 75.1867 126.751 75.176C126.793 75.1653 126.825 75.1573 126.847 75.152C126.873 75.1467 126.895 75.1413 126.911 75.136C127.113 75.0773 127.287 75.128 127.431 75.288C127.548 75.2987 127.647 75.3173 127.727 75.344C127.903 75.392 128.06 75.4747 128.199 75.592C128.327 75.6987 128.508 75.8773 128.743 76.128C129.031 76.4373 129.236 76.7067 129.359 76.936C129.519 77.2347 129.625 77.5467 129.679 77.872C129.737 78.1973 129.732 78.5333 129.663 78.88C129.593 79.2213 129.473 79.5413 129.303 79.84C129.137 80.1333 128.9 80.384 128.591 80.592C128.287 80.7947 127.935 80.9253 127.535 80.984ZM127.391 79.992C127.673 79.9547 127.921 79.8453 128.135 79.664C128.348 79.4827 128.503 79.2693 128.599 79.024C128.695 78.7733 128.735 78.496 128.719 78.192C128.708 77.9467 128.628 77.688 128.479 77.416C128.388 77.2453 128.231 77.04 128.007 76.8C127.719 76.4907 127.532 76.3253 127.447 76.304C127.404 76.288 127.297 76.272 127.127 76.256L126.695 76.216C126.62 76.2373 126.553 76.264 126.495 76.296C126.073 76.52 125.772 76.8587 125.591 77.312C125.409 77.7653 125.369 78.2027 125.471 78.624C125.567 79.088 125.78 79.4507 126.111 79.712C126.441 79.9733 126.868 80.0667 127.391 79.992ZM131.219 80.968C131.16 80.968 131.104 80.9547 131.051 80.928C130.933 80.9173 130.832 80.8693 130.747 80.784C130.661 80.6933 130.619 80.5893 130.619 80.472C130.565 78.9787 130.555 77.44 130.587 75.856C130.587 75.7387 130.621 75.6373 130.691 75.552C130.765 75.4613 130.856 75.4053 130.963 75.384C130.979 75.3787 130.995 75.376 131.011 75.376L131.251 75.336C131.405 75.304 131.499 75.288 131.531 75.288C131.568 75.2827 131.664 75.2693 131.819 75.248C131.979 75.2213 132.091 75.208 132.155 75.208C132.219 75.208 132.323 75.2053 132.467 75.2C132.611 75.1947 132.728 75.2 132.819 75.216L133.139 75.28C133.256 75.3067 133.368 75.3413 133.475 75.384C133.581 75.432 133.683 75.488 133.779 75.552C134.088 75.744 134.309 75.976 134.443 76.248C134.581 76.52 134.616 76.792 134.547 77.064C134.477 77.336 134.32 77.5947 134.075 77.84C134.123 77.8773 134.173 77.9173 134.227 77.96C134.461 78.1787 134.624 78.424 134.715 78.696C134.805 78.9787 134.816 79.2587 134.747 79.536C134.688 79.7973 134.568 80.0373 134.387 80.256C134.205 80.4693 133.987 80.64 133.731 80.768C133.576 80.8373 133.411 80.8933 133.235 80.936C133.059 80.9787 132.867 81.0027 132.659 81.008C132.451 81.0187 132.277 81.0213 132.139 81.016C132.005 81.016 131.829 81.0107 131.611 81C131.397 80.984 131.267 80.9733 131.219 80.968ZM131.571 80.024C131.88 80.056 132.197 80.0667 132.523 80.056C132.853 80.0453 133.115 79.9947 133.307 79.904C133.584 79.7653 133.752 79.5707 133.811 79.32C133.864 79.0853 133.784 78.8747 133.571 78.688C133.512 78.6293 133.456 78.584 133.403 78.552C133.355 78.52 133.291 78.4987 133.211 78.488C133.131 78.4773 133.067 78.472 133.019 78.472C132.976 78.472 132.88 78.4747 132.731 78.48C132.587 78.4853 132.469 78.488 132.379 78.488C132.331 78.4933 132.283 78.488 132.235 78.472C132.197 78.4773 132.077 78.4773 131.875 78.472C131.672 78.4667 131.56 78.464 131.539 78.464C131.544 78.9973 131.555 79.5173 131.571 80.024ZM131.531 77.504C131.589 77.504 131.707 77.5067 131.883 77.512C132.059 77.512 132.173 77.512 132.227 77.512C132.285 77.5067 132.373 77.4987 132.491 77.488C132.608 77.4773 132.709 77.464 132.795 77.448C132.88 77.4267 132.965 77.3973 133.051 77.36C133.211 77.2853 133.339 77.2 133.435 77.104C133.531 77.008 133.587 76.9147 133.603 76.824C133.645 76.6853 133.533 76.5333 133.267 76.368C133.064 76.2453 132.805 76.1813 132.491 76.176C132.181 76.1707 131.867 76.2 131.547 76.264C131.536 76.6587 131.531 77.072 131.531 77.504ZM138.568 79.48H138.52C138.382 79.4907 138.251 79.4987 138.128 79.504L137.84 79.512C137.771 79.5173 137.696 79.5227 137.616 79.528C137.536 79.5333 137.483 79.5387 137.456 79.544C137.435 79.544 137.395 79.544 137.336 79.544H137.232C137.222 79.544 137.182 79.5467 137.112 79.552C137.048 79.552 137.003 79.552 136.976 79.552C136.955 79.5467 136.891 79.544 136.784 79.544H136.528C136.347 79.9333 136.192 80.312 136.064 80.68C136.016 80.808 135.931 80.9013 135.808 80.96C135.686 81.0187 135.558 81.0267 135.424 80.984C135.296 80.936 135.203 80.8507 135.144 80.728C135.086 80.6053 135.078 80.4773 135.12 80.344C135.243 80.0453 135.382 79.7093 135.536 79.336L136.08 78.04L136.528 76.968C136.576 76.856 136.64 76.6907 136.72 76.472C136.806 76.248 136.859 76.104 136.88 76.04C136.95 75.864 137.008 75.7307 137.056 75.64C137.099 75.56 137.144 75.496 137.192 75.448C137.336 75.2773 137.512 75.2133 137.72 75.256C137.822 75.2773 137.912 75.3253 137.992 75.4C138.024 75.432 138.054 75.4693 138.08 75.512C138.112 75.56 138.147 75.6213 138.184 75.696C138.238 75.7973 138.299 75.936 138.368 76.112L138.632 76.808C139.24 78.4667 139.702 79.632 140.016 80.304C140.086 80.4053 140.091 80.528 140.032 80.672C139.974 80.8107 139.88 80.9093 139.752 80.968C139.63 81.0213 139.504 81.0213 139.376 80.968C139.248 80.9147 139.158 80.8267 139.104 80.704L138.568 79.48ZM136.944 78.552C137.104 78.552 137.52 78.5333 138.192 78.496L137.688 77.16L137.616 76.936L137.456 77.352L136.944 78.552ZM140.872 80.536C140.845 80.0667 140.816 79.2587 140.784 78.112C140.773 78.064 140.768 78.016 140.768 77.968C140.768 77.9253 140.771 77.8853 140.776 77.848C140.749 76.936 140.72 76.248 140.688 75.784C140.677 75.6453 140.717 75.5253 140.808 75.424C140.899 75.3173 141.013 75.2613 141.152 75.256C141.291 75.2453 141.411 75.2853 141.512 75.376C141.619 75.4667 141.675 75.5813 141.68 75.72C141.712 76.136 141.741 76.72 141.768 77.472C142.061 77.472 142.509 77.4747 143.112 77.48C143.715 77.4853 144.168 77.488 144.472 77.488C144.493 76.864 144.523 76.2613 144.56 75.68C144.565 75.5413 144.619 75.4267 144.72 75.336C144.827 75.2453 144.949 75.2053 145.088 75.216C145.227 75.2213 145.341 75.2773 145.432 75.384C145.523 75.4853 145.563 75.6053 145.552 75.744C145.461 77.2213 145.416 78.8133 145.416 80.52C145.416 80.6587 145.368 80.776 145.272 80.872C145.176 80.968 145.059 81.016 144.92 81.016C144.781 81.016 144.664 80.968 144.568 80.872C144.472 80.776 144.424 80.6587 144.424 80.52C144.424 79.848 144.429 79.1707 144.44 78.488C144.147 78.488 143.704 78.4853 143.112 78.48C142.525 78.4747 142.085 78.472 141.792 78.472C141.819 79.336 141.843 80.008 141.864 80.488C141.875 80.6267 141.832 80.7467 141.736 80.848C141.645 80.9493 141.531 81.0027 141.392 81.008C141.253 81.0187 141.133 80.9787 141.032 80.888C140.931 80.792 140.877 80.6747 140.872 80.536ZM147.535 80.936C147.433 81.0107 147.319 81.0373 147.191 81.016C147.068 81 146.969 80.9413 146.895 80.84C146.815 80.7333 146.788 80.6133 146.815 80.48V80.464C146.879 79.7067 146.908 78.92 146.903 78.104C146.897 77.288 146.841 76.5147 146.735 75.784C146.713 75.656 146.74 75.5413 146.815 75.44C146.889 75.3387 146.988 75.28 147.111 75.264C147.239 75.2427 147.353 75.2693 147.455 75.344C147.556 75.4187 147.615 75.5173 147.631 75.64C147.801 76.7493 147.852 78.0453 147.783 79.528C148.007 79.3093 148.223 79.0747 148.431 78.824C148.639 78.568 149.025 78.04 149.591 77.24L150.703 75.456C150.767 75.3493 150.86 75.2827 150.983 75.256C151.105 75.224 151.22 75.2427 151.327 75.312C151.417 75.3653 151.479 75.44 151.511 75.536C151.548 75.6267 151.553 75.72 151.527 75.816V75.832C151.521 76.1733 151.503 76.5893 151.471 77.08C151.439 77.5653 151.409 77.9653 151.383 78.28C151.361 78.5893 151.359 78.9573 151.375 79.384C151.391 79.8107 151.433 80.1787 151.503 80.488C151.529 80.6107 151.505 80.7253 151.431 80.832C151.361 80.9333 151.265 80.9973 151.143 81.024C151.02 81.0507 150.905 81.0293 150.799 80.96C150.697 80.8853 150.633 80.7867 150.607 80.664C150.511 80.2267 150.46 79.7093 150.455 79.112C150.449 78.5147 150.471 77.9707 150.519 77.48C150.295 77.848 150.084 78.1627 149.887 78.424C149.695 78.68 149.473 78.968 149.223 79.288C148.972 79.608 148.703 79.9067 148.415 80.184C148.132 80.4613 147.839 80.712 147.535 80.936ZM156.695 81.008C155.852 81.008 154.769 80.9947 153.447 80.968C153.308 80.968 153.191 80.92 153.095 80.824C152.999 80.7227 152.953 80.6027 152.959 80.464C152.959 80.416 152.964 80.3707 152.975 80.328C152.804 78.9253 152.732 77.4587 152.759 75.928C152.748 75.88 152.743 75.8293 152.743 75.776C152.743 75.6427 152.791 75.528 152.887 75.432C152.988 75.3307 153.108 75.2827 153.247 75.288C153.839 75.2933 154.948 75.296 156.575 75.296C156.713 75.296 156.831 75.344 156.927 75.44C157.023 75.536 157.071 75.6533 157.071 75.792C157.071 75.9307 157.023 76.048 156.927 76.144C156.831 76.24 156.713 76.288 156.575 76.288H153.751C153.751 76.72 153.756 77.1387 153.767 77.544C154.295 77.5547 155.156 77.5467 156.351 77.52C156.484 77.5147 156.601 77.56 156.703 77.656C156.804 77.752 156.855 77.8693 156.855 78.008C156.86 78.1413 156.815 78.2587 156.719 78.36C156.623 78.4613 156.505 78.512 156.367 78.512C155.204 78.5387 154.353 78.5493 153.815 78.544C153.847 78.9867 153.887 79.4667 153.935 79.984C155.012 80.0053 155.932 80.016 156.695 80.016C156.833 80.016 156.951 80.064 157.047 80.16C157.143 80.256 157.191 80.3733 157.191 80.512C157.191 80.6507 157.143 80.768 157.047 80.864C156.951 80.96 156.833 81.008 156.695 81.008Z" fill="white"/>
<path d="M9.367 66.003C8.78433 66.3703 8.10667 66.611 7.334 66.725C6.574 66.8263 5.86467 66.8073 5.206 66.668C4.39533 66.516 3.64167 66.231 2.945 65.813C2.261 65.395 1.73533 64.844 1.368 64.16C0.95 63.4 0.722 62.3993 0.684 61.158C0.684 60.8287 0.690333 60.3537 0.703 59.733C0.728333 59.1123 0.741 58.707 0.741 58.517C0.741 58.213 0.842333 57.9597 1.045 57.757C1.26033 57.5417 1.52 57.434 1.824 57.434C2.128 57.434 2.38133 57.5417 2.584 57.757C2.79933 57.9597 2.907 58.213 2.907 58.517C2.907 58.7197 2.89433 59.1187 2.869 59.714C2.85633 60.3093 2.85633 60.7717 2.869 61.101C2.89433 62.0003 3.02733 62.678 3.268 63.134C3.458 63.4633 3.75567 63.7547 4.161 64.008C4.56633 64.2613 5.04133 64.4323 5.586 64.521C6.14333 64.6223 6.669 64.635 7.163 64.559C7.657 64.4703 8.06233 64.3057 8.379 64.065C8.63233 63.8877 8.797 63.7167 8.873 63.552C8.911 63.476 8.93633 63.4063 8.949 63.343C8.97433 63.267 9.01233 63.153 9.063 63.001L9.215 62.526C9.22767 62.4627 9.253 62.4057 9.291 62.355C9.215 61.025 9.09467 59.79 8.93 58.65C8.892 58.3587 8.96167 58.0927 9.139 57.852C9.31633 57.6113 9.55067 57.472 9.842 57.434C10.146 57.3833 10.4183 57.4467 10.659 57.624C10.8997 57.8013 11.0453 58.042 11.096 58.346C11.1973 59.106 11.2797 59.866 11.343 60.626C11.419 61.3733 11.4697 62.2347 11.495 63.21C11.5203 64.1853 11.533 64.901 11.533 65.357C11.5457 65.813 11.5457 66.6427 11.533 67.846C11.533 69.0367 11.533 69.7397 11.533 69.955C11.533 70.259 11.4253 70.5187 11.21 70.734C11.0073 70.9367 10.754 71.038 10.45 71.038C10.146 71.038 9.88633 70.9367 9.671 70.734C9.46833 70.5187 9.367 70.259 9.367 69.955V66.003ZM15.8767 70.848C15.6361 71.0253 15.3637 71.0887 15.0597 71.038C14.7684 71 14.5341 70.8607 14.3567 70.62C14.1667 70.3667 14.1034 70.0817 14.1667 69.765V69.727C14.3187 67.9283 14.3884 66.06 14.3757 64.122C14.3631 62.184 14.2301 60.3473 13.9767 58.612C13.9261 58.308 13.9894 58.0357 14.1667 57.795C14.3441 57.5543 14.5784 57.415 14.8697 57.377C15.1737 57.3263 15.4461 57.3897 15.6867 57.567C15.9274 57.7443 16.0667 57.9787 16.1047 58.27C16.5101 60.9047 16.6304 63.9827 16.4657 67.504C16.9977 66.9847 17.5107 66.4273 18.0047 65.832C18.4987 65.224 19.4171 63.97 20.7597 62.07L23.4007 57.833C23.5527 57.5797 23.7744 57.4213 24.0657 57.358C24.3571 57.282 24.6294 57.3263 24.8827 57.491C25.0981 57.6177 25.2437 57.795 25.3197 58.023C25.4084 58.2383 25.4211 58.46 25.3577 58.688V58.726C25.3451 59.5367 25.3007 60.5247 25.2247 61.69C25.1487 62.8427 25.0791 63.7927 25.0157 64.54C24.9651 65.2747 24.9587 66.1487 24.9967 67.162C25.0347 68.1753 25.1361 69.0493 25.3007 69.784C25.3641 70.0753 25.3071 70.3477 25.1297 70.601C24.9651 70.8417 24.7371 70.9937 24.4457 71.057C24.1544 71.1203 23.8821 71.0697 23.6287 70.905C23.3881 70.7277 23.2361 70.4933 23.1727 70.202C22.9447 69.1633 22.8244 67.9347 22.8117 66.516C22.7991 65.0973 22.8497 63.8053 22.9637 62.64C22.4317 63.514 21.9314 64.2613 21.4627 64.882C21.0067 65.49 20.4811 66.174 19.8857 66.934C19.2904 67.694 18.6507 68.4033 17.9667 69.062C17.2954 69.7207 16.5987 70.316 15.8767 70.848ZM32.1085 70.943C31.2472 70.7403 30.4365 70.4047 29.6765 69.936C28.9292 69.4547 28.3402 68.8847 27.9095 68.226C27.4155 67.466 27.0988 66.63 26.9595 65.718C26.8202 64.806 26.8455 63.9193 27.0355 63.058C27.2255 62.184 27.5485 61.3797 28.0045 60.645C28.4732 59.847 29.0622 59.182 29.7715 58.65C30.4935 58.1053 31.3295 57.719 32.2795 57.491C33.2295 57.263 34.2492 57.3073 35.3385 57.624C35.7438 57.738 36.0985 57.8647 36.4025 58.004C36.7192 58.1433 36.9978 58.327 37.2385 58.555C37.4918 58.7703 37.6818 58.9477 37.8085 59.087C37.9352 59.2137 38.1125 59.4353 38.3405 59.752C38.5685 60.056 38.7205 60.2523 38.7965 60.341C38.9992 60.569 39.0752 60.8413 39.0245 61.158C38.9865 61.462 38.8408 61.7027 38.5875 61.88C38.3342 62.0573 38.0428 62.127 37.7135 62.089C37.3968 62.051 37.1498 61.9117 36.9725 61.671L36.4215 61.025C36.2315 60.7717 36.0985 60.6007 36.0225 60.512C35.9465 60.4233 35.8325 60.3157 35.6805 60.189C35.5412 60.0623 35.3955 59.9673 35.2435 59.904C35.1042 59.8407 34.9142 59.7773 34.6735 59.714C33.7108 59.4607 32.8242 59.5177 32.0135 59.885C31.2155 60.2523 30.5505 60.8603 30.0185 61.709C29.4992 62.5577 29.2268 63.4697 29.2015 64.445C29.1762 65.4203 29.4105 66.2943 29.9045 67.067C30.1578 67.4597 30.5315 67.8143 31.0255 68.131C31.5195 68.4477 32.0515 68.6693 32.6215 68.796C33.8375 69.062 34.7748 68.8593 35.4335 68.188C35.6235 67.9853 35.8388 67.675 36.0795 67.257C36.5228 66.3703 36.7445 65.9207 36.7445 65.908C36.9092 65.642 37.1435 65.471 37.4475 65.395C37.7642 65.3063 38.0618 65.338 38.3405 65.49C38.6192 65.6293 38.8028 65.851 38.8915 66.155C38.9802 66.4463 38.9485 66.7187 38.7965 66.972C38.7205 67.0987 38.6508 67.2253 38.5875 67.352L38.3595 67.808L38.1695 68.207C37.8528 68.815 37.5235 69.2963 37.1815 69.651C36.7255 70.107 36.1998 70.4617 35.6045 70.715C35.0092 70.9557 34.4202 71.076 33.8375 71.076C33.2675 71.0887 32.6912 71.0443 32.1085 70.943ZM45.8895 69.86C45.8895 70.1893 45.7691 70.468 45.5285 70.696C45.3005 70.924 45.0218 71.0317 44.6925 71.019C44.3631 71.019 44.0845 70.905 43.8565 70.677C43.6285 70.4363 43.5208 70.1513 43.5335 69.822C43.6348 64.844 43.6855 61.5253 43.6855 59.866L40.3605 59.79C40.0311 59.79 39.7525 59.676 39.5245 59.448C39.2965 59.2073 39.1825 58.9223 39.1825 58.593C39.1951 58.2637 39.3155 57.985 39.5435 57.757C39.7841 57.529 40.0691 57.4213 40.3985 57.434C41.3231 57.4467 42.7671 57.472 44.7305 57.51C46.7065 57.548 48.2075 57.5797 49.2335 57.605C49.5628 57.605 49.8415 57.7253 50.0695 57.966C50.2975 58.194 50.4051 58.4727 50.3925 58.802C50.3925 59.1313 50.2721 59.41 50.0315 59.638C49.8035 59.866 49.5248 59.9737 49.1955 59.961C48.3215 59.9483 47.2701 59.9293 46.0415 59.904C46.0415 61.576 45.9908 64.8947 45.8895 69.86ZM52.8763 71.152C52.5469 71.1773 52.2556 71.0823 52.0023 70.867C51.7616 70.6517 51.6349 70.3793 51.6223 70.05C51.5463 68.872 51.4893 66.9783 51.4513 64.369C51.4133 61.899 51.3499 60.0053 51.2613 58.688C51.2359 58.3713 51.3309 58.0927 51.5463 57.852C51.7616 57.5987 52.0276 57.4593 52.3443 57.434C52.6736 57.4087 52.9586 57.5037 53.1993 57.719C53.4526 57.9343 53.5919 58.2067 53.6173 58.536C53.7059 59.7393 53.7693 61.2657 53.8073 63.115H54.3013C55.0486 63.1023 55.6186 63.1023 56.0113 63.115C57.5566 63.1783 58.7599 63.457 59.6213 63.951C60.6726 64.559 61.3376 65.281 61.6163 66.117C62.0849 67.447 61.9013 68.5617 61.0653 69.461C60.4573 70.1197 59.5326 70.5567 58.2913 70.772C57.2146 70.9747 55.6376 71.0127 53.5603 70.886C53.3576 71.0507 53.1296 71.1393 52.8763 71.152ZM53.9213 68.53C55.6819 68.6313 56.9993 68.606 57.8733 68.454C58.5953 68.3147 59.0829 68.112 59.3363 67.846C59.5263 67.6307 59.5389 67.2697 59.3743 66.763C59.2856 66.4843 58.9753 66.231 58.4433 66.003C57.9239 65.699 57.0879 65.528 55.9353 65.49C55.5679 65.4773 55.0296 65.4773 54.3203 65.49H53.8263C53.8516 66.6933 53.8833 67.7067 53.9213 68.53ZM65.4733 69.917C65.4606 70.2463 65.3339 70.525 65.0933 70.753C64.8526 70.9683 64.5676 71.0633 64.2383 71.038C63.9089 71.0253 63.6303 70.8987 63.4023 70.658C63.1869 70.4173 63.0919 70.1323 63.1173 69.803C63.1299 69.461 63.1743 68.5553 63.2503 67.086C63.3389 65.604 63.3896 64.5653 63.4023 63.97C63.4276 63.362 63.4276 62.5577 63.4023 61.557C63.3896 60.5437 63.3326 59.5873 63.2313 58.688C63.1933 58.3587 63.2756 58.0673 63.4783 57.814C63.6809 57.5607 63.9469 57.415 64.2763 57.377C64.6056 57.339 64.8969 57.4213 65.1503 57.624C65.4036 57.8267 65.5493 58.0927 65.5873 58.422C65.7013 59.3973 65.7646 60.3663 65.7773 61.329C65.8026 62.507 65.8026 63.4127 65.7773 64.046C65.7646 64.6667 65.7139 65.7307 65.6253 67.238C65.5366 68.7327 65.4859 69.6257 65.4733 69.917ZM69.2644 71.038C68.8844 71.038 68.5804 70.886 68.3524 70.582C68.137 70.278 68.0927 69.9487 68.2194 69.594C68.5234 65.5913 68.46 61.899 68.0294 58.517C67.9914 58.2257 68.061 57.9597 68.2384 57.719C68.4284 57.4783 68.669 57.339 68.9604 57.301C69.2644 57.263 69.5367 57.339 69.7774 57.529C70.018 57.7063 70.1574 57.947 70.1954 58.251C70.55 61.1643 70.6577 64.2297 70.5184 67.447C71.0377 66.9403 71.538 66.3957 72.0194 65.813C72.5007 65.2303 72.982 64.578 73.4634 63.856L74.6794 61.994L76.0094 59.828L77.2444 57.795C77.3964 57.567 77.5927 57.415 77.8334 57.339C78.0867 57.2503 78.3337 57.2567 78.5744 57.358C78.8277 57.4087 79.0367 57.5353 79.2014 57.738C79.366 57.9407 79.4484 58.175 79.4484 58.441C79.4357 59.239 79.3914 60.2143 79.3154 61.367L79.1634 64.274C79.1127 65.0593 79.1 65.9587 79.1254 66.972C79.1507 67.9727 79.2394 68.8973 79.3914 69.746C79.442 70.05 79.3787 70.3223 79.2014 70.563C79.0367 70.8037 78.8024 70.9493 78.4984 71C78.207 71.0507 77.941 70.9937 77.7004 70.829C77.4597 70.6517 77.314 70.4173 77.2634 70.126C77.0607 68.948 76.953 67.6307 76.9404 66.174C76.9404 64.7047 76.991 63.3937 77.0924 62.241L75.5914 64.578C75.148 65.2493 74.6287 65.9713 74.0334 66.744C73.4507 67.5167 72.8237 68.2323 72.1524 68.891C71.4937 69.5497 70.8034 70.145 70.0814 70.677C69.866 70.9177 69.6 71.038 69.2834 71.038H69.2644ZM73.7294 56.408C73.21 56.408 72.7097 56.275 72.2284 56.009C71.7597 55.7557 71.215 55.363 70.5944 54.831C70.379 54.641 70.2587 54.4003 70.2334 54.109C70.2207 53.805 70.3157 53.539 70.5184 53.311C70.721 53.0703 70.968 52.9437 71.2594 52.931C71.5634 52.9057 71.8294 53.0007 72.0574 53.216C72.8554 53.9 73.4064 54.242 73.7104 54.242C74.0017 54.242 74.6034 53.9127 75.5154 53.254C75.7687 53.0767 76.041 53.0133 76.3324 53.064C76.6237 53.1147 76.858 53.2603 77.0354 53.501C77.2127 53.7417 77.276 54.014 77.2254 54.318C77.1747 54.6093 77.029 54.8437 76.7884 55.021C76.3577 55.3123 76.0157 55.5403 75.7624 55.705C75.509 55.8697 75.1924 56.028 74.8124 56.18C74.4324 56.332 74.0714 56.408 73.7294 56.408ZM88.1976 70.924C88.0582 70.924 87.9252 70.8923 87.7986 70.829C87.5199 70.8037 87.2792 70.6897 87.0766 70.487C86.8739 70.2717 86.7726 70.0247 86.7726 69.746C86.6459 66.1993 86.6206 62.545 86.6966 58.783C86.6966 58.5043 86.7789 58.2637 86.9436 58.061C87.1209 57.8457 87.3362 57.7127 87.5896 57.662C87.6276 57.6493 87.6656 57.643 87.7036 57.643L88.2736 57.548C88.6409 57.472 88.8626 57.434 88.9386 57.434C89.0272 57.4213 89.2552 57.3897 89.6226 57.339C90.0026 57.2757 90.2686 57.244 90.4206 57.244C90.5726 57.244 90.8196 57.2377 91.1616 57.225C91.5036 57.2123 91.7822 57.225 91.9976 57.263L92.7576 57.415C93.0362 57.4783 93.3022 57.5607 93.5556 57.662C93.8089 57.776 94.0496 57.909 94.2776 58.061C95.0122 58.517 95.5379 59.068 95.8546 59.714C96.1839 60.36 96.2662 61.006 96.1016 61.652C95.9369 62.298 95.5632 62.9123 94.9806 63.495C95.0946 63.5837 95.2149 63.6787 95.3416 63.78C95.8989 64.2993 96.2852 64.882 96.5006 65.528C96.7159 66.1993 96.7412 66.8643 96.5766 67.523C96.4372 68.1437 96.1522 68.7137 95.7216 69.233C95.2909 69.7397 94.7716 70.145 94.1636 70.449C93.7962 70.6137 93.4036 70.7467 92.9856 70.848C92.5676 70.9493 92.1116 71.0063 91.6176 71.019C91.1236 71.0443 90.7119 71.0507 90.3826 71.038C90.0659 71.038 89.6479 71.0253 89.1286 71C88.6219 70.962 88.3116 70.9367 88.1976 70.924ZM89.0336 68.682C89.7682 68.758 90.5219 68.7833 91.2946 68.758C92.0799 68.7327 92.7006 68.6123 93.1566 68.397C93.8152 68.0677 94.2142 67.6053 94.3536 67.01C94.4802 66.4527 94.2902 65.9523 93.7836 65.509C93.6442 65.3697 93.5112 65.262 93.3846 65.186C93.2706 65.11 93.1186 65.0593 92.9286 65.034C92.7386 65.0087 92.5866 64.996 92.4726 64.996C92.3712 64.996 92.1432 65.0023 91.7886 65.015C91.4466 65.0277 91.1679 65.034 90.9526 65.034C90.8386 65.0467 90.7246 65.034 90.6106 64.996C90.5219 65.0087 90.2369 65.0087 89.7556 64.996C89.2742 64.9833 89.0082 64.977 88.9576 64.977C88.9702 66.2437 88.9956 67.4787 89.0336 68.682ZM88.9386 62.697C89.0779 62.697 89.3566 62.7033 89.7746 62.716C90.1926 62.716 90.4649 62.716 90.5916 62.716C90.7309 62.7033 90.9399 62.6843 91.2186 62.659C91.4972 62.6337 91.7379 62.602 91.9406 62.564C92.1432 62.5133 92.3459 62.4437 92.5486 62.355C92.9286 62.1777 93.2326 61.975 93.4606 61.747C93.6886 61.519 93.8216 61.2973 93.8596 61.082C93.9609 60.7527 93.6949 60.3917 93.0616 59.999C92.5802 59.7077 91.9659 59.5557 91.2186 59.543C90.4839 59.5303 89.7366 59.6 88.9766 59.752C88.9512 60.6893 88.9386 61.671 88.9386 62.697ZM105.025 70.962C104.037 71.1013 103.119 71.0633 102.27 70.848C101.422 70.62 100.7 70.259 100.104 69.765C99.509 69.2583 99.015 68.6757 98.6223 68.017C98.2297 67.3457 97.9573 66.6237 97.8053 65.851C97.6913 65.243 97.6343 64.6667 97.6343 64.122C97.6343 63.5647 97.7167 62.9693 97.8813 62.336C98.0587 61.7027 98.293 61.1073 98.5843 60.55C98.8883 59.9927 99.281 59.4733 99.7623 58.992C100.244 58.498 100.795 58.08 101.415 57.738C101.529 57.548 101.694 57.4023 101.909 57.301C102.125 57.1997 102.353 57.1617 102.593 57.187L102.897 57.225C102.973 57.2123 103.062 57.1933 103.163 57.168C103.265 57.1427 103.341 57.1237 103.391 57.111C103.455 57.0983 103.505 57.0857 103.543 57.073C104.025 56.9337 104.436 57.054 104.778 57.434C105.057 57.4593 105.291 57.5037 105.481 57.567C105.899 57.681 106.273 57.8773 106.602 58.156C106.906 58.4093 107.337 58.8337 107.894 59.429C108.578 60.1637 109.066 60.8033 109.357 61.348C109.737 62.0573 109.991 62.7983 110.117 63.571C110.257 64.3437 110.244 65.1417 110.079 65.965C109.915 66.7757 109.63 67.5357 109.224 68.245C108.832 68.9417 108.268 69.537 107.533 70.031C106.811 70.5123 105.975 70.8227 105.025 70.962ZM104.683 68.606C105.355 68.5173 105.944 68.2577 106.45 67.827C106.957 67.3963 107.324 66.8897 107.552 66.307C107.78 65.7117 107.875 65.053 107.837 64.331C107.812 63.7483 107.622 63.134 107.267 62.488C107.052 62.0827 106.678 61.595 106.146 61.025C105.462 60.2903 105.019 59.8977 104.816 59.847C104.715 59.809 104.462 59.771 104.056 59.733L103.03 59.638C102.853 59.6887 102.695 59.752 102.555 59.828C101.555 60.36 100.839 61.1643 100.408 62.241C99.9777 63.3177 99.8827 64.3563 100.123 65.357C100.351 66.459 100.858 67.3203 101.643 67.941C102.429 68.5617 103.442 68.7833 104.683 68.606ZM117.386 70.848C116.816 70.9747 116.246 71.038 115.676 71.038C115.106 71.0507 114.529 70.9747 113.947 70.81C113.377 70.6327 112.889 70.373 112.484 70.031C112.218 69.765 111.977 69.3977 111.762 68.929L111.553 68.492C111.489 68.3527 111.432 68.245 111.382 68.169C111.23 67.9283 111.192 67.6623 111.268 67.371C111.344 67.0797 111.502 66.8643 111.743 66.725C111.996 66.573 112.268 66.535 112.56 66.611C112.851 66.687 113.073 66.8453 113.225 67.086L113.491 67.58L113.681 67.998C113.782 68.2133 113.877 68.359 113.966 68.435C114.181 68.6377 114.548 68.777 115.068 68.853C115.587 68.929 116.214 68.8973 116.949 68.758C117.607 68.606 118.152 68.3907 118.583 68.112C119.013 67.8207 119.279 67.5293 119.381 67.238C119.457 66.9847 119.381 66.6363 119.153 66.193C118.912 65.7117 118.633 65.376 118.317 65.186C118.177 65.11 117.842 65.0213 117.31 64.92H117.291C117.265 64.9327 117.101 64.958 116.797 64.996C116.505 65.0213 116.258 65.0087 116.056 64.958C115.574 64.8187 115.264 64.5147 115.125 64.046C114.998 63.6533 115.068 63.3113 115.334 63.02C115.422 62.8933 115.543 62.7983 115.695 62.735C115.783 62.697 115.878 62.6653 115.98 62.64C116.043 62.64 116.125 62.6337 116.227 62.621C116.505 62.583 116.702 62.5577 116.816 62.545C117.348 62.4563 117.753 62.3233 118.032 62.146C118.323 61.956 118.5 61.785 118.564 61.633C118.627 61.4683 118.627 61.139 118.564 60.645C118.526 60.2777 118.329 59.98 117.975 59.752C117.633 59.524 117.145 59.41 116.512 59.41C115.853 59.41 115.264 59.5303 114.745 59.771C114.238 60.0117 113.902 60.2903 113.738 60.607V60.759C113.738 60.7843 113.731 60.8097 113.719 60.835C113.719 60.8603 113.719 60.892 113.719 60.93V61.006C113.706 61.158 113.687 61.2847 113.662 61.386C113.611 61.6647 113.459 61.8927 113.206 62.07C112.952 62.2347 112.686 62.298 112.408 62.26C112.129 62.2093 111.901 62.0637 111.724 61.823C111.559 61.5697 111.502 61.2973 111.553 61.006C111.553 60.968 111.559 60.911 111.572 60.835C111.584 60.645 111.591 60.5437 111.591 60.531C111.629 60.189 111.711 59.8977 111.838 59.657C112.218 58.859 112.851 58.2637 113.738 57.871C114.637 57.4657 115.562 57.263 116.512 57.263C116.968 57.263 117.411 57.32 117.842 57.434C118.285 57.548 118.709 57.719 119.115 57.947C119.533 58.1623 119.887 58.4917 120.179 58.935C120.47 59.3657 120.641 59.847 120.692 60.379C120.793 61.215 120.755 61.8863 120.578 62.393C120.4 62.8363 120.109 63.229 119.704 63.571C120.261 63.9763 120.711 64.521 121.053 65.205C121.559 66.1803 121.68 67.0733 121.414 67.884C121.16 68.6567 120.654 69.2963 119.894 69.803C119.146 70.297 118.31 70.6453 117.386 70.848ZM132.572 72.672C132.572 71.7727 132.578 71.1773 132.591 70.886C131.286 70.9113 128.474 70.9493 124.155 71C124.155 71.0127 124.225 71.437 124.364 72.273C124.415 72.577 124.351 72.8493 124.174 73.09C124.009 73.3307 123.775 73.4953 123.471 73.584C123.18 73.6727 122.914 73.6093 122.673 73.394C122.432 73.1913 122.287 72.9443 122.236 72.653L122.103 71.969C122.065 71.7283 122.04 71.5953 122.027 71.57C122.027 71.5447 122.021 71.4623 122.008 71.323C121.995 71.1837 121.989 71.095 121.989 71.057C121.989 71.019 121.983 70.886 121.97 70.658L121.932 69.936C121.919 69.6573 122.002 69.4103 122.179 69.195C122.356 68.967 122.584 68.834 122.863 68.796C124.37 65.8447 124.947 62.5007 124.592 58.764V58.688C124.579 58.5993 124.573 58.517 124.573 58.441C124.586 58.137 124.7 57.8837 124.915 57.681C125.143 57.4783 125.403 57.3833 125.694 57.396H130.843C131.134 57.4087 131.362 57.415 131.527 57.415C131.628 57.4277 131.711 57.434 131.774 57.434C131.837 57.4467 131.888 57.453 131.926 57.453C132.065 57.4783 132.205 57.5353 132.344 57.624C132.99 58.0547 133.313 58.8083 133.313 59.885C133.313 60.1383 133.3 60.4487 133.275 60.816C133.237 61.1327 133.218 61.3037 133.218 61.329C133.18 62.431 133.224 63.837 133.351 65.547C133.364 65.813 133.395 66.3007 133.446 67.01C133.509 67.7193 133.554 68.283 133.579 68.701H133.674C133.965 68.701 134.212 68.796 134.415 68.986C134.63 69.176 134.751 69.4103 134.776 69.689C134.789 69.7777 134.795 69.8663 134.795 69.955C134.757 70.943 134.738 71.8487 134.738 72.672C134.738 72.976 134.63 73.2293 134.415 73.432C134.212 73.6473 133.959 73.755 133.655 73.755C133.351 73.755 133.091 73.6473 132.876 73.432C132.673 73.2293 132.572 72.976 132.572 72.672ZM125.257 68.796C128.107 68.7833 130.159 68.7643 131.413 68.739C131.388 68.3463 131.343 67.8143 131.28 67.143C131.229 66.459 131.198 65.9713 131.185 65.68C131.058 63.9067 131.014 62.431 131.052 61.253C131.052 61.2277 131.071 61.006 131.109 60.588C131.134 60.3093 131.147 60.0813 131.147 59.904C131.147 59.7773 131.141 59.6697 131.128 59.581H130.805C130.362 59.5683 129.716 59.562 128.867 59.562H126.834C127.024 62.9567 126.498 66.0347 125.257 68.796ZM137.838 71.437C137.471 71.4117 137.053 71.2913 136.584 71.076L136.147 70.867C136.008 70.8037 135.9 70.753 135.824 70.715C135.546 70.6137 135.343 70.43 135.216 70.164C135.09 69.8853 135.077 69.6067 135.178 69.328C135.292 69.0493 135.482 68.8467 135.748 68.72C136.027 68.5933 136.306 68.587 136.584 68.701C136.736 68.7517 136.907 68.8213 137.097 68.91L137.496 69.119C137.712 69.2077 137.876 69.2583 137.99 69.271L138.009 69.252H138.047L138.104 69.214C138.13 69.2013 138.155 69.1887 138.18 69.176C138.206 69.1507 138.237 69.1253 138.275 69.1C138.313 69.0747 138.351 69.0493 138.389 69.024C138.427 68.986 138.472 68.948 138.522 68.91L138.655 68.758C138.871 68.53 139.143 68.1817 139.472 67.713C138.092 65.471 136.654 62.5577 135.159 58.973C135.02 58.6943 134.995 58.4157 135.083 58.137C135.185 57.8457 135.368 57.6367 135.634 57.51C135.913 57.3707 136.192 57.3517 136.47 57.453C136.762 57.5417 136.971 57.719 137.097 57.985C138.516 61.3923 139.757 63.9827 140.821 65.756C142.544 63.0073 143.665 60.5057 144.184 58.251C144.248 57.9597 144.406 57.7317 144.659 57.567C144.913 57.4023 145.185 57.3517 145.476 57.415C145.768 57.4783 145.996 57.6367 146.16 57.89C146.325 58.1433 146.376 58.4157 146.312 58.707C145.958 60.2523 145.337 61.918 144.45 63.704C143.551 65.528 142.544 67.2 141.429 68.72C140.872 69.48 140.473 69.9867 140.232 70.24C139.434 71.0887 138.636 71.4877 137.838 71.437ZM147.545 71.019C147.216 71.0443 146.924 70.9557 146.671 70.753C146.418 70.5503 146.272 70.2907 146.234 69.974C146.209 69.6447 146.304 69.3533 146.519 69.1L150.623 64.122C149.268 62.298 148.083 60.6513 147.07 59.182C146.893 58.9033 146.836 58.612 146.899 58.308C146.962 57.9913 147.127 57.7443 147.393 57.567C147.672 57.3897 147.969 57.3327 148.286 57.396C148.603 57.4593 148.85 57.6177 149.027 57.871L152.124 62.184C153.289 60.6513 154.315 59.182 155.202 57.776C155.379 57.5227 155.626 57.3643 155.943 57.301C156.272 57.225 156.57 57.2693 156.836 57.434C157.115 57.5987 157.286 57.8393 157.349 58.156C157.425 58.4727 157.381 58.7703 157.216 59.049C156.165 60.645 154.955 62.3423 153.587 64.141L157.482 69.214C157.672 69.4673 157.742 69.7523 157.691 70.069C157.653 70.3857 157.501 70.639 157.235 70.829C156.982 71.019 156.69 71.0887 156.361 71.038C156.044 71 155.785 70.8543 155.582 70.601L152.086 66.041L148.343 70.601C148.14 70.8417 147.874 70.981 147.545 71.019Z" fill="white"/>
<path d="M99.4736 25C99.4736 38.8071 88.8699 50 75.7894 50C62.709 50 52.1052 38.8071 52.1052 25C52.1052 11.1929 62.709 0 75.7894 0C88.8699 0 99.4736 11.1929 99.4736 25ZM59.4473 25C59.4473 34.5269 66.7639 42.25 75.7894 42.25C84.8149 42.25 92.1315 34.5269 92.1315 25C92.1315 15.4731 84.8149 7.75 75.7894 7.75C66.7639 7.75 59.4473 15.4731 59.4473 25Z" fill="white"/>
<path d="M101.963 51.9688V48.2756L109.017 42.4403C109.485 42.0526 109.885 41.6894 110.217 41.3509C110.556 41.0062 110.814 40.6522 110.993 40.2891C111.177 39.9259 111.27 39.5227 111.27 39.0795C111.27 38.5933 111.165 38.1778 110.956 37.8331C110.753 37.4884 110.469 37.2237 110.106 37.0391C109.743 36.8482 109.325 36.7528 108.851 36.7528C108.377 36.7528 107.958 36.8482 107.595 37.0391C107.238 37.2299 106.961 37.5099 106.764 37.8793C106.567 38.2486 106.469 38.6979 106.469 39.2273H101.594C101.594 37.8977 101.892 36.7528 102.489 35.7926C103.086 34.8324 103.929 34.0938 105.019 33.5767C106.108 33.0597 107.386 32.8011 108.851 32.8011C110.365 32.8011 111.676 33.0443 112.784 33.5305C113.898 34.0107 114.757 34.6877 115.36 35.5618C115.969 36.4358 116.274 37.4607 116.274 38.6364C116.274 39.3627 116.123 40.0859 115.822 40.8061C115.52 41.5201 114.978 42.3111 114.197 43.179C113.415 44.0469 112.304 45.081 110.863 46.2812L109.091 47.7585V47.8693H116.477V51.9688H101.963Z" fill="white"/>
<path d="M23.037 35.4599L23.5647 31.4646L19.8713 29.9663" stroke="white" stroke-linecap="round"/>
<path d="M46.2522 27.4692L40.4484 29.9663L40.976 36.4588" stroke="white" stroke-linecap="round"/>
<path d="M40.4485 15.9827L39.9209 21.9757L45.7247 24.9722" stroke="white" stroke-linecap="round"/>
<path d="M33.5895 24.9722V11.9873" stroke="white" stroke-linecap="round"/>
<ellipse cx="33.5895" cy="25.9711" rx="2.11047" ry="1.99767" fill="white"/>
<path d="M46.2523 33.4623L34.6447 26.8171" stroke="white" stroke-linecap="round"/>
<path d="M19.8713 33.4623L32.5342 26.4705" stroke="white" stroke-linecap="round"/>
<path d="M36.7551 12.9861L33.5894 14.9838L30.4237 12.9861" stroke="white" stroke-linecap="round"/>
<path d="M38.8655 14.4844L33.5893 17.4809L27.7855 14.4844" stroke="white" stroke-linecap="round"/>
<path d="M36.7552 18.4797L33.5894 19.978L29.8961 18.4797" stroke="white" stroke-linecap="round"/>
<path d="M38.8655 19.978L33.5893 22.9745L27.7855 19.978" stroke="white" stroke-linecap="round"/>
<path d="M36.2274 24.4726L46.2522 18.979" stroke="white" stroke-linecap="round"/>
<path d="M42.559 16.9814V20.9768L46.2523 22.4751" stroke="white" stroke-linecap="round"/>
<path d="M46.7799 29.9663L43.0865 31.4646V35.4599" stroke="white" stroke-linecap="round"/>
<path d="M42.0313 26.9697L38.338 28.9674V32.9628" stroke="white" stroke-linecap="round"/>
<path d="M41.5038 24.4727L35.7 27.4692L36.2276 33.9616" stroke="white" stroke-linecap="round"/>
<path d="M33.0618 29.4668V40.454" stroke="white" stroke-linecap="round"/>
<path d="M29.3684 38.9558L33.0617 36.4587L36.7551 38.9558" stroke="white" stroke-linecap="round"/>
<path d="M27.2581 36.9581L33.0619 33.4622L38.8657 36.9581" stroke="white" stroke-linecap="round"/>
<path d="M25.1475 36.4588L25.6751 30.4658L19.8713 27.4692" stroke="white" stroke-linecap="round"/>
<path d="M27.7855 32.9628V28.9674L24.0922 26.9697" stroke="white" stroke-linecap="round"/>
<path d="M29.8961 33.4622L30.4237 27.9686L24.6199 24.4727" stroke="white" stroke-linecap="round"/>
<path d="M19.8713 18.979L29.8961 24.4726" stroke="white" stroke-linecap="round"/>
<path d="M23.5647 16.9814V20.9768L19.8713 22.9745" stroke="white" stroke-linecap="round"/>
<path d="M26.2027 15.9827V22.4751L20.3989 24.9722" stroke="white" stroke-linecap="round"/>
</svg>
