<svg width="202" height="120" viewBox="0 0 202 120" fill="none" xmlns="http://www.w3.org/2000/svg">
  <style>
        .rotation {

          animation: rotate 10s linear infinite;
          transform-origin: 21% 30%;

        }

        @keyframes rotate {
          0% {
            transform: rotate(0deg);
          }

          100% {
            transform: rotate(360deg);
          }
        }
      </style>
<path d="M1.56 114.96C1.48667 114.96 1.41667 114.943 1.35 114.91C1.20333 114.897 1.07667 114.837 0.97 114.73C0.863333 114.617 0.81 114.487 0.81 114.34C0.743333 112.473 0.73 110.55 0.77 108.57C0.77 108.423 0.813333 108.297 0.9 108.19C0.993333 108.077 1.10667 108.007 1.24 107.98C1.26 107.973 1.28 107.97 1.3 107.97L1.6 107.92C1.79333 107.88 1.91 107.86 1.95 107.86C1.99667 107.853 2.11667 107.837 2.31 107.81C2.51 107.777 2.65 107.76 2.73 107.76C2.81 107.76 2.94 107.757 3.12 107.75C3.3 107.743 3.44667 107.75 3.56 107.77L3.96 107.85C4.10667 107.883 4.24667 107.927 4.38 107.98C4.51333 108.04 4.64 108.11 4.76 108.19C5.14667 108.43 5.42333 108.72 5.59 109.06C5.76333 109.4 5.80667 109.74 5.72 110.08C5.63333 110.42 5.43667 110.743 5.13 111.05C5.19 111.097 5.25333 111.147 5.32 111.2C5.61333 111.473 5.81667 111.78 5.93 112.12C6.04333 112.473 6.05667 112.823 5.97 113.17C5.89667 113.497 5.74667 113.797 5.52 114.07C5.29333 114.337 5.02 114.55 4.7 114.71C4.50667 114.797 4.3 114.867 4.08 114.92C3.86 114.973 3.62 115.003 3.36 115.01C3.1 115.023 2.88333 115.027 2.71 115.02C2.54333 115.02 2.32333 115.013 2.05 115C1.78333 114.98 1.62 114.967 1.56 114.96ZM2 113.78C2.38667 113.82 2.78333 113.833 3.19 113.82C3.60333 113.807 3.93 113.743 4.17 113.63C4.51667 113.457 4.72667 113.213 4.8 112.9C4.86667 112.607 4.76667 112.343 4.5 112.11C4.42667 112.037 4.35667 111.98 4.29 111.94C4.23 111.9 4.15 111.873 4.05 111.86C3.95 111.847 3.87 111.84 3.81 111.84C3.75667 111.84 3.63667 111.843 3.45 111.85C3.27 111.857 3.12333 111.86 3.01 111.86C2.95 111.867 2.89 111.86 2.83 111.84C2.78333 111.847 2.63333 111.847 2.38 111.84C2.12667 111.833 1.98667 111.83 1.96 111.83C1.96667 112.497 1.98 113.147 2 113.78ZM1.95 110.63C2.02333 110.63 2.17 110.633 2.39 110.64C2.61 110.64 2.75333 110.64 2.82 110.64C2.89333 110.633 3.00333 110.623 3.15 110.61C3.29667 110.597 3.42333 110.58 3.53 110.56C3.63667 110.533 3.74333 110.497 3.85 110.45C4.05 110.357 4.21 110.25 4.33 110.13C4.45 110.01 4.52 109.893 4.54 109.78C4.59333 109.607 4.45333 109.417 4.12 109.21C3.86667 109.057 3.54333 108.977 3.15 108.97C2.76333 108.963 2.37 109 1.97 109.08C1.95667 109.573 1.95 110.09 1.95 110.63ZM12.0767 115.01C11.0234 115.01 9.67005 114.993 8.01672 114.96C7.84339 114.96 7.69672 114.9 7.57672 114.78C7.45672 114.653 7.40005 114.503 7.40672 114.33C7.40672 114.27 7.41339 114.213 7.42672 114.16C7.21339 112.407 7.12339 110.573 7.15672 108.66C7.14339 108.6 7.13672 108.537 7.13672 108.47C7.13672 108.303 7.19672 108.16 7.31672 108.04C7.44339 107.913 7.59339 107.853 7.76672 107.86C8.50672 107.867 9.89339 107.87 11.9267 107.87C12.1001 107.87 12.2467 107.93 12.3667 108.05C12.4867 108.17 12.5467 108.317 12.5467 108.49C12.5467 108.663 12.4867 108.81 12.3667 108.93C12.2467 109.05 12.1001 109.11 11.9267 109.11H8.39672C8.39672 109.65 8.40339 110.173 8.41672 110.68C9.07672 110.693 10.1534 110.683 11.6467 110.65C11.8134 110.643 11.9601 110.7 12.0867 110.82C12.2134 110.94 12.2767 111.087 12.2767 111.26C12.2834 111.427 12.2267 111.573 12.1067 111.7C11.9867 111.827 11.8401 111.89 11.6667 111.89C10.2134 111.923 9.15005 111.937 8.47672 111.93C8.51672 112.483 8.56672 113.083 8.62672 113.73C9.97339 113.757 11.1234 113.77 12.0767 113.77C12.2501 113.77 12.3967 113.83 12.5167 113.95C12.6367 114.07 12.6967 114.217 12.6967 114.39C12.6967 114.563 12.6367 114.71 12.5167 114.83C12.3967 114.95 12.2501 115.01 12.0767 115.01ZM13.8804 114.42C13.8471 113.833 13.8104 112.823 13.7704 111.39C13.7571 111.33 13.7504 111.27 13.7504 111.21C13.7504 111.157 13.7537 111.107 13.7604 111.06C13.7271 109.92 13.6904 109.06 13.6504 108.48C13.6371 108.307 13.6871 108.157 13.8004 108.03C13.9137 107.897 14.0571 107.827 14.2304 107.82C14.4037 107.807 14.5537 107.857 14.6804 107.97C14.8137 108.083 14.8837 108.227 14.8904 108.4C14.9304 108.92 14.9671 109.65 15.0004 110.59C15.3671 110.59 15.9271 110.593 16.6804 110.6C17.4337 110.607 18.0004 110.61 18.3804 110.61C18.4071 109.83 18.4437 109.077 18.4904 108.35C18.4971 108.177 18.5637 108.033 18.6904 107.92C18.8237 107.807 18.9771 107.757 19.1504 107.77C19.3237 107.777 19.4671 107.847 19.5804 107.98C19.6937 108.107 19.7437 108.257 19.7304 108.43C19.6171 110.277 19.5604 112.267 19.5604 114.4C19.5604 114.573 19.5004 114.72 19.3804 114.84C19.2604 114.96 19.1137 115.02 18.9404 115.02C18.7671 115.02 18.6204 114.96 18.5004 114.84C18.3804 114.72 18.3204 114.573 18.3204 114.4C18.3204 113.56 18.3271 112.713 18.3404 111.86C17.9737 111.86 17.4204 111.857 16.6804 111.85C15.9471 111.843 15.3971 111.84 15.0304 111.84C15.0637 112.92 15.0937 113.76 15.1204 114.36C15.1337 114.533 15.0804 114.683 14.9604 114.81C14.8471 114.937 14.7037 115.003 14.5304 115.01C14.3571 115.023 14.2071 114.973 14.0804 114.86C13.9537 114.74 13.8871 114.593 13.8804 114.42ZM24.0785 114.4C24.0785 114.573 24.0152 114.72 23.8885 114.84C23.7685 114.96 23.6218 115.017 23.4485 115.01C23.2752 115.01 23.1285 114.95 23.0085 114.83C22.8885 114.703 22.8318 114.553 22.8385 114.38C22.8918 111.76 22.9185 110.013 22.9185 109.14L21.1685 109.1C20.9952 109.1 20.8485 109.04 20.7285 108.92C20.6085 108.793 20.5485 108.643 20.5485 108.47C20.5552 108.297 20.6185 108.15 20.7385 108.03C20.8652 107.91 21.0152 107.853 21.1885 107.86C21.6752 107.867 22.4352 107.88 23.4685 107.9C24.5085 107.92 25.2985 107.937 25.8385 107.95C26.0118 107.95 26.1585 108.013 26.2785 108.14C26.3985 108.26 26.4552 108.407 26.4485 108.58C26.4485 108.753 26.3852 108.9 26.2585 109.02C26.1385 109.14 25.9918 109.197 25.8185 109.19C25.3585 109.183 24.8052 109.173 24.1585 109.16C24.1585 110.04 24.1318 111.787 24.0785 114.4ZM28.1558 114.92C28.0291 115.013 27.8858 115.047 27.7258 115.02C27.5724 115 27.4491 114.927 27.3558 114.8C27.2558 114.667 27.2224 114.517 27.2558 114.35V114.33C27.3358 113.383 27.3724 112.4 27.3658 111.38C27.3591 110.36 27.2891 109.393 27.1558 108.48C27.1291 108.32 27.1624 108.177 27.2558 108.05C27.3491 107.923 27.4724 107.85 27.6258 107.83C27.7858 107.803 27.9291 107.837 28.0558 107.93C28.1824 108.023 28.2558 108.147 28.2758 108.3C28.4891 109.687 28.5524 111.307 28.4658 113.16C28.7458 112.887 29.0158 112.593 29.2758 112.28C29.5358 111.96 30.0191 111.3 30.7258 110.3L32.1158 108.07C32.1958 107.937 32.3124 107.853 32.4658 107.82C32.6191 107.78 32.7624 107.803 32.8958 107.89C33.0091 107.957 33.0858 108.05 33.1258 108.17C33.1724 108.283 33.1791 108.4 33.1458 108.52V108.54C33.1391 108.967 33.1158 109.487 33.0758 110.1C33.0358 110.707 32.9991 111.207 32.9658 111.6C32.9391 111.987 32.9358 112.447 32.9558 112.98C32.9758 113.513 33.0291 113.973 33.1158 114.36C33.1491 114.513 33.1191 114.657 33.0258 114.79C32.9391 114.917 32.8191 114.997 32.6658 115.03C32.5124 115.063 32.3691 115.037 32.2358 114.95C32.1091 114.857 32.0291 114.733 31.9958 114.58C31.8758 114.033 31.8124 113.387 31.8058 112.64C31.7991 111.893 31.8258 111.213 31.8858 110.6C31.6058 111.06 31.3424 111.453 31.0958 111.78C30.8558 112.1 30.5791 112.46 30.2658 112.86C29.9524 113.26 29.6158 113.633 29.2558 113.98C28.9024 114.327 28.5358 114.64 28.1558 114.92ZM34.816 115.07C34.8093 115.07 34.736 115.06 34.596 115.04C34.536 115.033 34.4893 115.03 34.456 115.03C34.296 115.03 34.1593 114.977 34.046 114.87C33.9393 114.757 33.886 114.62 33.886 114.46C33.886 114.3 33.9393 114.167 34.046 114.06C34.1593 113.947 34.296 113.89 34.456 113.89C34.5293 113.89 34.6193 113.897 34.726 113.91C34.7327 113.91 34.7593 113.913 34.806 113.92C34.8527 113.92 34.8893 113.923 34.916 113.93C34.9693 113.937 35.0093 113.937 35.036 113.93C35.1093 113.817 35.1693 113.677 35.216 113.51C35.3093 113.177 35.3727 112.72 35.406 112.14C35.4593 111.433 35.456 110.643 35.396 109.77C35.3893 109.697 35.3593 109.457 35.306 109.05C35.286 108.87 35.2727 108.74 35.266 108.66C35.2593 108.593 35.256 108.54 35.256 108.5C35.2493 108.467 35.2493 108.433 35.256 108.4C35.256 108.367 35.2593 108.333 35.266 108.3C35.2927 108.187 35.3493 108.09 35.436 108.01C35.4827 107.97 35.5327 107.937 35.586 107.91C35.6393 107.883 35.6793 107.87 35.706 107.87L35.756 107.86C35.7827 107.853 35.8193 107.85 35.866 107.85C35.9193 107.843 35.9893 107.84 36.076 107.84C36.2093 107.833 36.386 107.833 36.606 107.84C36.9527 107.847 37.216 107.853 37.396 107.86C37.476 107.86 37.6027 107.867 37.776 107.88L38.186 107.91H38.206C38.2127 107.91 38.2193 107.91 38.226 107.91C38.2393 107.903 38.2627 107.897 38.296 107.89C38.3293 107.883 38.3693 107.877 38.416 107.87C38.7027 107.83 38.9427 107.88 39.136 108.02C39.4627 108.26 39.646 108.643 39.686 109.17C39.6993 109.317 39.7027 109.487 39.696 109.68C39.696 109.713 39.6927 109.77 39.686 109.85C39.6793 109.93 39.676 109.99 39.676 110.03V112.31C39.676 113.243 39.6493 113.973 39.596 114.5C39.5827 114.653 39.516 114.783 39.396 114.89C39.276 114.99 39.136 115.033 38.976 115.02C38.8227 115.007 38.6927 114.94 38.586 114.82C38.486 114.7 38.4427 114.56 38.456 114.4C38.5027 113.907 38.5293 113.21 38.536 112.31V110.01C38.536 109.97 38.536 109.903 38.536 109.81C38.5427 109.717 38.5493 109.657 38.556 109.63C38.5627 109.483 38.5593 109.36 38.546 109.26C38.5393 109.16 38.526 109.08 38.506 109.02C38.3527 109.047 38.2327 109.057 38.146 109.05C38.0527 109.05 37.916 109.043 37.736 109.03L37.336 109C37.1693 108.993 36.9227 108.987 36.596 108.98H36.456C36.5027 109.36 36.5293 109.597 36.536 109.69C36.596 110.637 36.5993 111.477 36.546 112.21C36.506 112.863 36.4293 113.397 36.316 113.81C36.1427 114.443 35.8627 114.837 35.476 114.99C35.2893 115.063 35.0693 115.09 34.816 115.07ZM42.0099 114.62C41.9633 114.773 41.8699 114.887 41.7299 114.96C41.5966 115.033 41.4533 115.047 41.2999 115C41.1466 114.96 41.0333 114.873 40.9599 114.74C40.8866 114.6 40.8699 114.453 40.9099 114.3C41.2566 113.2 41.6433 112.4 42.0699 111.9C41.8099 111.767 41.5999 111.603 41.4399 111.41C41.2933 111.237 41.1866 111.033 41.1199 110.8C41.0533 110.56 41.0266 110.33 41.0399 110.11C41.0533 109.89 41.0966 109.687 41.1699 109.5C41.5433 108.547 42.3566 107.99 43.6099 107.83C43.8766 107.797 44.1599 107.78 44.4599 107.78C44.7666 107.78 45.1133 107.79 45.4999 107.81C45.8866 107.83 46.1166 107.84 46.1899 107.84C46.2299 107.833 46.2733 107.83 46.3199 107.83C46.4733 107.837 46.6033 107.9 46.7099 108.02C46.8166 108.133 46.8666 108.27 46.8599 108.43C46.8266 109.23 46.8099 110.203 46.8099 111.35C46.8899 111.47 46.9166 111.603 46.8899 111.75C46.8833 111.83 46.8566 111.903 46.8099 111.97C46.8099 113.11 46.7999 113.957 46.7799 114.51C46.7733 114.67 46.7133 114.803 46.5999 114.91C46.4866 115.017 46.3499 115.067 46.1899 115.06C46.0299 115.053 45.8966 114.993 45.7899 114.88C45.6833 114.767 45.6333 114.63 45.6399 114.47C45.6599 113.957 45.6699 113.247 45.6699 112.34C45.6433 112.34 45.5533 112.343 45.3999 112.35C45.2466 112.35 45.1233 112.35 45.0299 112.35C44.5433 112.35 44.1299 112.337 43.7899 112.31C43.6499 112.297 43.5166 112.283 43.3899 112.27L43.3499 112.29C43.0899 112.443 42.8533 112.703 42.6399 113.07C42.4333 113.437 42.2233 113.953 42.0099 114.62ZM43.2599 111.09C43.8333 110.897 44.6366 110.863 45.6699 110.99C45.6699 110.183 45.6799 109.507 45.6999 108.96C44.7599 108.92 44.1099 108.923 43.7499 108.97C43.3433 109.017 43.0166 109.117 42.7699 109.27C42.5233 109.417 42.3433 109.633 42.2299 109.92C42.1833 110.047 42.1666 110.187 42.1799 110.34C42.1999 110.487 42.2399 110.597 42.2999 110.67C42.4666 110.857 42.7866 110.997 43.2599 111.09ZM54.0565 115.86C54.1098 115.32 54.1365 115.04 54.1365 115.02C53.2165 114.96 51.7232 114.957 49.6565 115.01C49.4632 115.003 49.2998 114.993 49.1665 114.98C49.0798 114.973 49.0032 114.96 48.9365 114.94C48.7965 114.907 48.6798 114.847 48.5865 114.76C48.5465 114.72 48.5098 114.673 48.4765 114.62C48.4498 114.567 48.4332 114.523 48.4265 114.49L48.4165 114.44C48.4098 114.407 48.4065 114.37 48.4065 114.33C48.3998 114.277 48.3965 114.21 48.3965 114.13C48.3898 114.01 48.4032 113.29 48.4365 111.97C48.4698 110.65 48.4632 109.45 48.4165 108.37C48.4098 108.21 48.4598 108.073 48.5665 107.96C48.6732 107.84 48.8032 107.777 48.9565 107.77C49.1165 107.763 49.2532 107.813 49.3665 107.92C49.4865 108.027 49.5498 108.157 49.5565 108.31C49.6032 109.357 49.5965 111.207 49.5365 113.86C49.5765 113.867 49.6265 113.87 49.6865 113.87C51.2998 113.81 52.4732 113.793 53.2065 113.82C53.2532 110.967 53.2732 109.417 53.2665 109.17C53.2598 108.923 53.2398 108.7 53.2065 108.5C53.1865 108.34 53.2232 108.2 53.3165 108.08C53.4165 107.953 53.5432 107.88 53.6965 107.86C53.8565 107.833 53.9965 107.87 54.1165 107.97C54.2432 108.063 54.3198 108.187 54.3465 108.34C54.3732 108.567 54.3898 108.823 54.3965 109.11C54.4098 109.397 54.3932 110.987 54.3465 113.88C54.4665 113.893 54.5865 113.903 54.7065 113.91C54.8265 113.917 54.9332 113.96 55.0265 114.04C55.1932 114.153 55.2765 114.31 55.2765 114.51C55.2098 115.643 55.1132 116.26 54.9865 116.36C54.8665 116.46 54.7265 116.503 54.5665 116.49C54.4132 116.477 54.2865 116.407 54.1865 116.28C54.0865 116.16 54.0432 116.02 54.0565 115.86ZM57.1988 114.92C57.0721 115.013 56.9288 115.047 56.7688 115.02C56.6154 115 56.4921 114.927 56.3988 114.8C56.2988 114.667 56.2654 114.517 56.2988 114.35V114.33C56.3788 113.383 56.4154 112.4 56.4088 111.38C56.4021 110.36 56.3321 109.393 56.1988 108.48C56.1721 108.32 56.2054 108.177 56.2988 108.05C56.3921 107.923 56.5154 107.85 56.6688 107.83C56.8288 107.803 56.9721 107.837 57.0988 107.93C57.2254 108.023 57.2988 108.147 57.3188 108.3C57.5321 109.687 57.5954 111.307 57.5088 113.16C57.7888 112.887 58.0588 112.593 58.3188 112.28C58.5788 111.96 59.0621 111.3 59.7688 110.3L61.1588 108.07C61.2388 107.937 61.3554 107.853 61.5088 107.82C61.6621 107.78 61.8054 107.803 61.9388 107.89C62.0521 107.957 62.1288 108.05 62.1688 108.17C62.2154 108.283 62.2221 108.4 62.1888 108.52V108.54C62.1821 108.967 62.1588 109.487 62.1188 110.1C62.0788 110.707 62.0421 111.207 62.0088 111.6C61.9821 111.987 61.9788 112.447 61.9988 112.98C62.0188 113.513 62.0721 113.973 62.1588 114.36C62.1921 114.513 62.1621 114.657 62.0688 114.79C61.9821 114.917 61.8621 114.997 61.7088 115.03C61.5554 115.063 61.4121 115.037 61.2788 114.95C61.1521 114.857 61.0721 114.733 61.0388 114.58C60.9188 114.033 60.8554 113.387 60.8488 112.64C60.8421 111.893 60.8688 111.213 60.9288 110.6C60.6488 111.06 60.3854 111.453 60.1388 111.78C59.8988 112.1 59.6221 112.46 59.3088 112.86C58.9954 113.26 58.6588 113.633 58.2988 113.98C57.9454 114.327 57.5788 114.64 57.1988 114.92ZM64.549 114.62C64.5023 114.773 64.409 114.887 64.269 114.96C64.1357 115.033 63.9923 115.047 63.839 115C63.6857 114.96 63.5723 114.873 63.499 114.74C63.4257 114.6 63.409 114.453 63.449 114.3C63.7957 113.2 64.1823 112.4 64.609 111.9C64.349 111.767 64.139 111.603 63.979 111.41C63.8323 111.237 63.7257 111.033 63.659 110.8C63.5923 110.56 63.5657 110.33 63.579 110.11C63.5923 109.89 63.6357 109.687 63.709 109.5C64.0823 108.547 64.8957 107.99 66.149 107.83C66.4157 107.797 66.699 107.78 66.999 107.78C67.3057 107.78 67.6523 107.79 68.039 107.81C68.4257 107.83 68.6557 107.84 68.729 107.84C68.769 107.833 68.8123 107.83 68.859 107.83C69.0123 107.837 69.1423 107.9 69.249 108.02C69.3557 108.133 69.4057 108.27 69.399 108.43C69.3657 109.23 69.349 110.203 69.349 111.35C69.429 111.47 69.4557 111.603 69.429 111.75C69.4223 111.83 69.3957 111.903 69.349 111.97C69.349 113.11 69.339 113.957 69.319 114.51C69.3123 114.67 69.2523 114.803 69.139 114.91C69.0257 115.017 68.889 115.067 68.729 115.06C68.569 115.053 68.4357 114.993 68.329 114.88C68.2223 114.767 68.1723 114.63 68.179 114.47C68.199 113.957 68.209 113.247 68.209 112.34C68.1823 112.34 68.0923 112.343 67.939 112.35C67.7857 112.35 67.6623 112.35 67.569 112.35C67.0823 112.35 66.669 112.337 66.329 112.31C66.189 112.297 66.0557 112.283 65.929 112.27L65.889 112.29C65.629 112.443 65.3923 112.703 65.179 113.07C64.9723 113.437 64.7623 113.953 64.549 114.62ZM65.799 111.09C66.3723 110.897 67.1757 110.863 68.209 110.99C68.209 110.183 68.219 109.507 68.239 108.96C67.299 108.92 66.649 108.923 66.289 108.97C65.8823 109.017 65.5557 109.117 65.309 109.27C65.0623 109.417 64.8823 109.633 64.769 109.92C64.7223 110.047 64.7057 110.187 64.719 110.34C64.739 110.487 64.779 110.597 64.839 110.67C65.0057 110.857 65.3257 110.997 65.799 111.09ZM71.3455 112.96C71.1589 112.96 71.0022 112.897 70.8755 112.77C70.7489 112.637 70.6855 112.48 70.6855 112.3C70.6855 112.12 70.7489 111.967 70.8755 111.84C71.0022 111.707 71.1589 111.64 71.3455 111.64H73.1155C73.3022 111.64 73.4589 111.707 73.5855 111.84C73.7122 111.967 73.7755 112.12 73.7755 112.3C73.7755 112.48 73.7122 112.637 73.5855 112.77C73.4589 112.897 73.3022 112.96 73.1155 112.96H71.3455ZM79.7473 114.82C79.6673 114.727 79.5773 114.63 79.4773 114.53L79.0373 114.07C78.9107 113.93 78.794 113.797 78.6873 113.67C78.4673 113.41 78.1707 113.003 77.7973 112.45L77.3473 111.81L76.3573 112.66C76.3773 113.253 76.4073 113.813 76.4473 114.34C76.4607 114.513 76.4107 114.667 76.2973 114.8C76.184 114.927 76.0407 114.997 75.8673 115.01C75.7007 115.023 75.5507 114.973 75.4173 114.86C75.2907 114.747 75.2207 114.607 75.2073 114.44C75.1673 113.907 75.134 113.333 75.1073 112.72C75.0073 112.533 75.004 112.343 75.0973 112.15C75.0773 111.397 75.0673 110.157 75.0673 108.43C75.0673 108.257 75.1273 108.11 75.2473 107.99C75.3673 107.87 75.514 107.81 75.6873 107.81C75.8607 107.81 76.0073 107.87 76.1273 107.99C76.2473 108.11 76.3073 108.257 76.3073 108.43C76.3073 109.723 76.3107 110.6 76.3173 111.06C77.1507 110.327 78.1773 109.327 79.3973 108.06C79.5173 107.933 79.6607 107.867 79.8273 107.86C80.0007 107.853 80.1507 107.91 80.2773 108.03C80.404 108.143 80.4707 108.287 80.4773 108.46C80.484 108.627 80.4307 108.773 80.3173 108.9C79.5107 109.727 78.8273 110.41 78.2673 110.95C78.4073 111.137 78.594 111.403 78.8273 111.75C79.1807 112.263 79.454 112.637 79.6473 112.87C79.754 112.997 79.8707 113.127 79.9973 113.26L80.4073 113.69L80.7673 114.06C80.8607 114.16 80.8907 114.287 80.8573 114.44C80.8307 114.593 80.774 114.73 80.6873 114.85C80.6007 114.963 80.4507 115.017 80.2373 115.01C80.0307 115.003 79.8673 114.94 79.7473 114.82ZM84.9527 114.98C84.4327 115.053 83.9493 115.033 83.5027 114.92C83.056 114.8 82.676 114.61 82.3627 114.35C82.0493 114.083 81.7893 113.777 81.5827 113.43C81.376 113.077 81.2327 112.697 81.1527 112.29C81.0927 111.97 81.0627 111.667 81.0627 111.38C81.0627 111.087 81.106 110.773 81.1927 110.44C81.286 110.107 81.4093 109.793 81.5627 109.5C81.7227 109.207 81.9293 108.933 82.1827 108.68C82.436 108.42 82.726 108.2 83.0527 108.02C83.1127 107.92 83.1993 107.843 83.3127 107.79C83.426 107.737 83.546 107.717 83.6727 107.73L83.8327 107.75C83.8727 107.743 83.9193 107.733 83.9727 107.72C84.026 107.707 84.066 107.697 84.0927 107.69C84.126 107.683 84.1527 107.677 84.1727 107.67C84.426 107.597 84.6427 107.66 84.8227 107.86C84.9693 107.873 85.0927 107.897 85.1927 107.93C85.4127 107.99 85.6093 108.093 85.7827 108.24C85.9427 108.373 86.1693 108.597 86.4627 108.91C86.8227 109.297 87.0793 109.633 87.2327 109.92C87.4327 110.293 87.566 110.683 87.6327 111.09C87.706 111.497 87.6993 111.917 87.6127 112.35C87.526 112.777 87.376 113.177 87.1627 113.55C86.956 113.917 86.6593 114.23 86.2727 114.49C85.8927 114.743 85.4527 114.907 84.9527 114.98ZM84.7727 113.74C85.126 113.693 85.436 113.557 85.7027 113.33C85.9693 113.103 86.1627 112.837 86.2827 112.53C86.4027 112.217 86.4527 111.87 86.4327 111.49C86.4193 111.183 86.3193 110.86 86.1327 110.52C86.0193 110.307 85.8227 110.05 85.5427 109.75C85.1827 109.363 84.9493 109.157 84.8427 109.13C84.7893 109.11 84.656 109.09 84.4427 109.07L83.9027 109.02C83.8093 109.047 83.726 109.08 83.6527 109.12C83.126 109.4 82.7493 109.823 82.5227 110.39C82.296 110.957 82.246 111.503 82.3727 112.03C82.4927 112.61 82.7593 113.063 83.1727 113.39C83.586 113.717 84.1193 113.833 84.7727 113.74ZM88.978 114.42C88.9447 113.833 88.908 112.823 88.868 111.39C88.8547 111.33 88.848 111.27 88.848 111.21C88.848 111.157 88.8514 111.107 88.858 111.06C88.8247 109.92 88.788 109.06 88.748 108.48C88.7347 108.307 88.7847 108.157 88.898 108.03C89.0114 107.897 89.1547 107.827 89.328 107.82C89.5014 107.807 89.6514 107.857 89.778 107.97C89.9114 108.083 89.9814 108.227 89.988 108.4C90.028 108.92 90.0647 109.65 90.098 110.59C90.4647 110.59 91.0247 110.593 91.778 110.6C92.5314 110.607 93.098 110.61 93.478 110.61C93.5047 109.83 93.5414 109.077 93.588 108.35C93.5947 108.177 93.6614 108.033 93.788 107.92C93.9214 107.807 94.0747 107.757 94.248 107.77C94.4214 107.777 94.5647 107.847 94.678 107.98C94.7914 108.107 94.8414 108.257 94.828 108.43C94.7147 110.277 94.658 112.267 94.658 114.4C94.658 114.573 94.598 114.72 94.478 114.84C94.358 114.96 94.2114 115.02 94.038 115.02C93.8647 115.02 93.718 114.96 93.598 114.84C93.478 114.72 93.418 114.573 93.418 114.4C93.418 113.56 93.4247 112.713 93.438 111.86C93.0714 111.86 92.518 111.857 91.778 111.85C91.0447 111.843 90.4947 111.84 90.128 111.84C90.1614 112.92 90.1914 113.76 90.218 114.36C90.2314 114.533 90.178 114.683 90.058 114.81C89.9447 114.937 89.8014 115.003 89.628 115.01C89.4547 115.023 89.3047 114.973 89.178 114.86C89.0514 114.74 88.9847 114.593 88.978 114.42ZM101.296 115.88C101.296 115.407 101.3 115.093 101.306 114.94C100.62 114.953 99.1395 114.973 96.8662 115C96.8662 115.007 96.9028 115.23 96.9762 115.67C97.0028 115.83 96.9695 115.973 96.8762 116.1C96.7895 116.227 96.6662 116.313 96.5062 116.36C96.3528 116.407 96.2128 116.373 96.0862 116.26C95.9595 116.153 95.8828 116.023 95.8562 115.87L95.7862 115.51C95.7662 115.383 95.7528 115.313 95.7462 115.3C95.7462 115.287 95.7428 115.243 95.7362 115.17C95.7295 115.097 95.7262 115.05 95.7262 115.03C95.7262 115.01 95.7228 114.94 95.7162 114.82L95.6962 114.44C95.6895 114.293 95.7328 114.163 95.8262 114.05C95.9195 113.93 96.0395 113.86 96.1862 113.84C96.9795 112.287 97.2828 110.527 97.0962 108.56V108.52C97.0895 108.473 97.0862 108.43 97.0862 108.39C97.0928 108.23 97.1528 108.097 97.2662 107.99C97.3862 107.883 97.5228 107.833 97.6762 107.84H100.386C100.54 107.847 100.66 107.85 100.746 107.85C100.8 107.857 100.843 107.86 100.876 107.86C100.91 107.867 100.936 107.87 100.956 107.87C101.03 107.883 101.103 107.913 101.176 107.96C101.516 108.187 101.686 108.583 101.686 109.15C101.686 109.283 101.68 109.447 101.666 109.64C101.646 109.807 101.636 109.897 101.636 109.91C101.616 110.49 101.64 111.23 101.706 112.13C101.713 112.27 101.73 112.527 101.756 112.9C101.79 113.273 101.813 113.57 101.826 113.79H101.876C102.03 113.79 102.16 113.84 102.266 113.94C102.38 114.04 102.443 114.163 102.456 114.31C102.463 114.357 102.466 114.403 102.466 114.45C102.446 114.97 102.436 115.447 102.436 115.88C102.436 116.04 102.38 116.173 102.266 116.28C102.16 116.393 102.026 116.45 101.866 116.45C101.706 116.45 101.57 116.393 101.456 116.28C101.35 116.173 101.296 116.04 101.296 115.88ZM97.4462 113.84C98.9462 113.833 100.026 113.823 100.686 113.81C100.673 113.603 100.65 113.323 100.616 112.97C100.59 112.61 100.573 112.353 100.566 112.2C100.5 111.267 100.476 110.49 100.496 109.87C100.496 109.857 100.506 109.74 100.526 109.52C100.54 109.373 100.546 109.253 100.546 109.16C100.546 109.093 100.543 109.037 100.536 108.99H100.366C100.133 108.983 99.7928 108.98 99.3462 108.98H98.2762C98.3762 110.767 98.0995 112.387 97.4462 113.84ZM104.318 114.92C104.191 115.013 104.048 115.047 103.888 115.02C103.735 115 103.611 114.927 103.518 114.8C103.418 114.667 103.385 114.517 103.418 114.35V114.33C103.498 113.383 103.535 112.4 103.528 111.38C103.521 110.36 103.451 109.393 103.318 108.48C103.291 108.32 103.325 108.177 103.418 108.05C103.511 107.923 103.635 107.85 103.788 107.83C103.948 107.803 104.091 107.837 104.218 107.93C104.345 108.023 104.418 108.147 104.438 108.3C104.651 109.687 104.715 111.307 104.628 113.16C104.908 112.887 105.178 112.593 105.438 112.28C105.698 111.96 106.181 111.3 106.888 110.3L108.278 108.07C108.358 107.937 108.475 107.853 108.628 107.82C108.781 107.78 108.925 107.803 109.058 107.89C109.171 107.957 109.248 108.05 109.288 108.17C109.335 108.283 109.341 108.4 109.308 108.52V108.54C109.301 108.967 109.278 109.487 109.238 110.1C109.198 110.707 109.161 111.207 109.128 111.6C109.101 111.987 109.098 112.447 109.118 112.98C109.138 113.513 109.191 113.973 109.278 114.36C109.311 114.513 109.281 114.657 109.188 114.79C109.101 114.917 108.981 114.997 108.828 115.03C108.675 115.063 108.531 115.037 108.398 114.95C108.271 114.857 108.191 114.733 108.158 114.58C108.038 114.033 107.975 113.387 107.968 112.64C107.961 111.893 107.988 111.213 108.048 110.6C107.768 111.06 107.505 111.453 107.258 111.78C107.018 112.1 106.741 112.46 106.428 112.86C106.115 113.26 105.778 113.633 105.418 113.98C105.065 114.327 104.698 114.64 104.318 114.92ZM116.488 115.86C116.541 115.32 116.568 115.04 116.568 115.02C115.648 114.96 114.155 114.957 112.088 115.01C111.895 115.003 111.731 114.993 111.598 114.98C111.511 114.973 111.435 114.96 111.368 114.94C111.228 114.907 111.111 114.847 111.018 114.76C110.978 114.72 110.941 114.673 110.908 114.62C110.881 114.567 110.865 114.523 110.858 114.49L110.848 114.44C110.841 114.407 110.838 114.37 110.838 114.33C110.831 114.277 110.828 114.21 110.828 114.13C110.821 114.01 110.835 113.29 110.868 111.97C110.901 110.65 110.895 109.45 110.848 108.37C110.841 108.21 110.891 108.073 110.998 107.96C111.105 107.84 111.235 107.777 111.388 107.77C111.548 107.763 111.685 107.813 111.798 107.92C111.918 108.027 111.981 108.157 111.988 108.31C112.035 109.357 112.028 111.207 111.968 113.86C112.008 113.867 112.058 113.87 112.118 113.87C113.731 113.81 114.905 113.793 115.638 113.82C115.685 110.967 115.705 109.417 115.698 109.17C115.691 108.923 115.671 108.7 115.638 108.5C115.618 108.34 115.655 108.2 115.748 108.08C115.848 107.953 115.975 107.88 116.128 107.86C116.288 107.833 116.428 107.87 116.548 107.97C116.675 108.063 116.751 108.187 116.778 108.34C116.805 108.567 116.821 108.823 116.828 109.11C116.841 109.397 116.825 110.987 116.778 113.88C116.898 113.893 117.018 113.903 117.138 113.91C117.258 113.917 117.365 113.96 117.458 114.04C117.625 114.153 117.708 114.31 117.708 114.51C117.641 115.643 117.545 116.26 117.418 116.36C117.298 116.46 117.158 116.503 116.998 116.49C116.845 116.477 116.718 116.407 116.618 116.28C116.518 116.16 116.475 116.02 116.488 115.86ZM119.63 114.92C119.504 115.013 119.36 115.047 119.2 115.02C119.047 115 118.924 114.927 118.83 114.8C118.73 114.667 118.697 114.517 118.73 114.35V114.33C118.81 113.383 118.847 112.4 118.84 111.38C118.834 110.36 118.764 109.393 118.63 108.48C118.604 108.32 118.637 108.177 118.73 108.05C118.824 107.923 118.947 107.85 119.1 107.83C119.26 107.803 119.404 107.837 119.53 107.93C119.657 108.023 119.73 108.147 119.75 108.3C119.964 109.687 120.027 111.307 119.94 113.16C120.22 112.887 120.49 112.593 120.75 112.28C121.01 111.96 121.494 111.3 122.2 110.3L123.59 108.07C123.67 107.937 123.787 107.853 123.94 107.82C124.094 107.78 124.237 107.803 124.37 107.89C124.484 107.957 124.56 108.05 124.6 108.17C124.647 108.283 124.654 108.4 124.62 108.52V108.54C124.614 108.967 124.59 109.487 124.55 110.1C124.51 110.707 124.474 111.207 124.44 111.6C124.414 111.987 124.41 112.447 124.43 112.98C124.45 113.513 124.504 113.973 124.59 114.36C124.624 114.513 124.594 114.657 124.5 114.79C124.414 114.917 124.294 114.997 124.14 115.03C123.987 115.063 123.844 115.037 123.71 114.95C123.584 114.857 123.504 114.733 123.47 114.58C123.35 114.033 123.287 113.387 123.28 112.64C123.274 111.893 123.3 111.213 123.36 110.6C123.08 111.06 122.817 111.453 122.57 111.78C122.33 112.1 122.054 112.46 121.74 112.86C121.427 113.26 121.09 113.633 120.73 113.98C120.377 114.327 120.01 114.64 119.63 114.92ZM129.503 114.98C128.983 115.053 128.5 115.033 128.053 114.92C127.607 114.8 127.227 114.61 126.913 114.35C126.6 114.083 126.34 113.777 126.133 113.43C125.927 113.077 125.783 112.697 125.703 112.29C125.643 111.97 125.613 111.667 125.613 111.38C125.613 111.087 125.657 110.773 125.743 110.44C125.837 110.107 125.96 109.793 126.113 109.5C126.273 109.207 126.48 108.933 126.733 108.68C126.987 108.42 127.277 108.2 127.603 108.02C127.663 107.92 127.75 107.843 127.863 107.79C127.977 107.737 128.097 107.717 128.223 107.73L128.383 107.75C128.423 107.743 128.47 107.733 128.523 107.72C128.577 107.707 128.617 107.697 128.643 107.69C128.677 107.683 128.703 107.677 128.723 107.67C128.977 107.597 129.193 107.66 129.373 107.86C129.52 107.873 129.643 107.897 129.743 107.93C129.963 107.99 130.16 108.093 130.333 108.24C130.493 108.373 130.72 108.597 131.013 108.91C131.373 109.297 131.63 109.633 131.783 109.92C131.983 110.293 132.117 110.683 132.183 111.09C132.257 111.497 132.25 111.917 132.163 112.35C132.077 112.777 131.927 113.177 131.713 113.55C131.507 113.917 131.21 114.23 130.823 114.49C130.443 114.743 130.003 114.907 129.503 114.98ZM129.323 113.74C129.677 113.693 129.987 113.557 130.253 113.33C130.52 113.103 130.713 112.837 130.833 112.53C130.953 112.217 131.003 111.87 130.983 111.49C130.97 111.183 130.87 110.86 130.683 110.52C130.57 110.307 130.373 110.05 130.093 109.75C129.733 109.363 129.5 109.157 129.393 109.13C129.34 109.11 129.207 109.09 128.993 109.07L128.453 109.02C128.36 109.047 128.277 109.08 128.203 109.12C127.677 109.4 127.3 109.823 127.073 110.39C126.847 110.957 126.797 111.503 126.923 112.03C127.043 112.61 127.31 113.063 127.723 113.39C128.137 113.717 128.67 113.833 129.323 113.74ZM133.529 114.42C133.495 113.833 133.459 112.823 133.419 111.39C133.405 111.33 133.399 111.27 133.399 111.21C133.399 111.157 133.402 111.107 133.409 111.06C133.375 109.92 133.339 109.06 133.299 108.48C133.285 108.307 133.335 108.157 133.449 108.03C133.562 107.897 133.705 107.827 133.879 107.82C134.052 107.807 134.202 107.857 134.329 107.97C134.462 108.083 134.532 108.227 134.539 108.4C134.579 108.92 134.615 109.65 134.649 110.59C135.015 110.59 135.575 110.593 136.329 110.6C137.082 110.607 137.649 110.61 138.029 110.61C138.055 109.83 138.092 109.077 138.139 108.35C138.145 108.177 138.212 108.033 138.339 107.92C138.472 107.807 138.625 107.757 138.799 107.77C138.972 107.777 139.115 107.847 139.229 107.98C139.342 108.107 139.392 108.257 139.379 108.43C139.265 110.277 139.209 112.267 139.209 114.4C139.209 114.573 139.149 114.72 139.029 114.84C138.909 114.96 138.762 115.02 138.589 115.02C138.415 115.02 138.269 114.96 138.149 114.84C138.029 114.72 137.969 114.573 137.969 114.4C137.969 113.56 137.975 112.713 137.989 111.86C137.622 111.86 137.069 111.857 136.329 111.85C135.595 111.843 135.045 111.84 134.679 111.84C134.712 112.92 134.742 113.76 134.769 114.36C134.782 114.533 134.729 114.683 134.609 114.81C134.495 114.937 134.352 115.003 134.179 115.01C134.005 115.023 133.855 114.973 133.729 114.86C133.602 114.74 133.535 114.593 133.529 114.42ZM141.857 114.92C141.73 115.013 141.587 115.047 141.427 115.02C141.274 115 141.15 114.927 141.057 114.8C140.957 114.667 140.924 114.517 140.957 114.35V114.33C141.037 113.383 141.074 112.4 141.067 111.38C141.06 110.36 140.99 109.393 140.857 108.48C140.83 108.32 140.864 108.177 140.957 108.05C141.05 107.923 141.174 107.85 141.327 107.83C141.487 107.803 141.63 107.837 141.757 107.93C141.884 108.023 141.957 108.147 141.977 108.3C142.19 109.687 142.254 111.307 142.167 113.16C142.447 112.887 142.717 112.593 142.977 112.28C143.237 111.96 143.72 111.3 144.427 110.3L145.817 108.07C145.897 107.937 146.014 107.853 146.167 107.82C146.32 107.78 146.464 107.803 146.597 107.89C146.71 107.957 146.787 108.05 146.827 108.17C146.874 108.283 146.88 108.4 146.847 108.52V108.54C146.84 108.967 146.817 109.487 146.777 110.1C146.737 110.707 146.7 111.207 146.667 111.6C146.64 111.987 146.637 112.447 146.657 112.98C146.677 113.513 146.73 113.973 146.817 114.36C146.85 114.513 146.82 114.657 146.727 114.79C146.64 114.917 146.52 114.997 146.367 115.03C146.214 115.063 146.07 115.037 145.937 114.95C145.81 114.857 145.73 114.733 145.697 114.58C145.577 114.033 145.514 113.387 145.507 112.64C145.5 111.893 145.527 111.213 145.587 110.6C145.307 111.06 145.044 111.453 144.797 111.78C144.557 112.1 144.28 112.46 143.967 112.86C143.654 113.26 143.317 113.633 142.957 113.98C142.604 114.327 142.237 114.64 141.857 114.92ZM148.627 114.4C148.627 114.04 148.624 113.62 148.617 113.14C148.617 112.66 148.617 112.21 148.617 111.79C148.617 111.37 148.607 110.92 148.587 110.44C148.567 109.96 148.541 109.507 148.507 109.08C148.394 108.98 148.327 108.853 148.307 108.7C148.281 108.473 148.351 108.29 148.517 108.15C148.624 107.943 148.791 107.83 149.017 107.81C149.164 107.797 149.301 107.83 149.427 107.91C149.721 107.863 149.971 107.83 150.177 107.81C150.384 107.79 150.637 107.777 150.937 107.77C151.244 107.757 151.531 107.78 151.797 107.84C152.071 107.893 152.324 107.977 152.557 108.09C152.871 108.25 153.141 108.483 153.367 108.79C153.601 109.09 153.761 109.417 153.847 109.77C153.941 110.117 153.921 110.477 153.787 110.85C153.661 111.223 153.414 111.547 153.047 111.82C152.601 112.153 151.977 112.32 151.177 112.32C150.931 112.32 150.637 112.303 150.297 112.27C150.244 112.263 150.101 112.247 149.867 112.22V114.4C149.874 114.567 149.814 114.713 149.687 114.84C149.567 114.96 149.421 115.02 149.247 115.02C149.081 115.027 148.934 114.97 148.807 114.85C148.687 114.723 148.627 114.573 148.627 114.4ZM151.187 111.07C151.707 111.07 152.081 110.987 152.307 110.82C152.474 110.693 152.577 110.53 152.617 110.33C152.664 110.123 152.631 109.917 152.517 109.71C152.411 109.497 152.237 109.33 151.997 109.21C151.811 109.11 151.584 109.05 151.317 109.03C151.057 109.003 150.824 109 150.617 109.02C150.411 109.04 150.127 109.077 149.767 109.13C149.807 109.683 149.834 110.293 149.847 110.96C149.894 110.967 149.981 110.977 150.107 110.99C150.241 111.003 150.347 111.013 150.427 111.02C150.727 111.053 150.981 111.07 151.187 111.07ZM158.234 114.98C157.714 115.053 157.231 115.033 156.784 114.92C156.337 114.8 155.957 114.61 155.644 114.35C155.331 114.083 155.071 113.777 154.864 113.43C154.657 113.077 154.514 112.697 154.434 112.29C154.374 111.97 154.344 111.667 154.344 111.38C154.344 111.087 154.387 110.773 154.474 110.44C154.567 110.107 154.691 109.793 154.844 109.5C155.004 109.207 155.211 108.933 155.464 108.68C155.717 108.42 156.007 108.2 156.334 108.02C156.394 107.92 156.481 107.843 156.594 107.79C156.707 107.737 156.827 107.717 156.954 107.73L157.114 107.75C157.154 107.743 157.201 107.733 157.254 107.72C157.307 107.707 157.347 107.697 157.374 107.69C157.407 107.683 157.434 107.677 157.454 107.67C157.707 107.597 157.924 107.66 158.104 107.86C158.251 107.873 158.374 107.897 158.474 107.93C158.694 107.99 158.891 108.093 159.064 108.24C159.224 108.373 159.451 108.597 159.744 108.91C160.104 109.297 160.361 109.633 160.514 109.92C160.714 110.293 160.847 110.683 160.914 111.09C160.987 111.497 160.981 111.917 160.894 112.35C160.807 112.777 160.657 113.177 160.444 113.55C160.237 113.917 159.941 114.23 159.554 114.49C159.174 114.743 158.734 114.907 158.234 114.98ZM158.054 113.74C158.407 113.693 158.717 113.557 158.984 113.33C159.251 113.103 159.444 112.837 159.564 112.53C159.684 112.217 159.734 111.87 159.714 111.49C159.701 111.183 159.601 110.86 159.414 110.52C159.301 110.307 159.104 110.05 158.824 109.75C158.464 109.363 158.231 109.157 158.124 109.13C158.071 109.11 157.937 109.09 157.724 109.07L157.184 109.02C157.091 109.047 157.007 109.08 156.934 109.12C156.407 109.4 156.031 109.823 155.804 110.39C155.577 110.957 155.527 111.503 155.654 112.03C155.774 112.61 156.041 113.063 156.454 113.39C156.867 113.717 157.401 113.833 158.054 113.74ZM162.839 114.96C162.766 114.96 162.696 114.943 162.629 114.91C162.483 114.897 162.356 114.837 162.249 114.73C162.143 114.617 162.089 114.487 162.089 114.34C162.023 112.473 162.009 110.55 162.049 108.57C162.049 108.423 162.093 108.297 162.179 108.19C162.273 108.077 162.386 108.007 162.519 107.98C162.539 107.973 162.559 107.97 162.579 107.97L162.879 107.92C163.073 107.88 163.189 107.86 163.229 107.86C163.276 107.853 163.396 107.837 163.589 107.81C163.789 107.777 163.929 107.76 164.009 107.76C164.089 107.76 164.219 107.757 164.399 107.75C164.579 107.743 164.726 107.75 164.839 107.77L165.239 107.85C165.386 107.883 165.526 107.927 165.659 107.98C165.793 108.04 165.919 108.11 166.039 108.19C166.426 108.43 166.703 108.72 166.869 109.06C167.043 109.4 167.086 109.74 166.999 110.08C166.913 110.42 166.716 110.743 166.409 111.05C166.469 111.097 166.533 111.147 166.599 111.2C166.893 111.473 167.096 111.78 167.209 112.12C167.323 112.473 167.336 112.823 167.249 113.17C167.176 113.497 167.026 113.797 166.799 114.07C166.573 114.337 166.299 114.55 165.979 114.71C165.786 114.797 165.579 114.867 165.359 114.92C165.139 114.973 164.899 115.003 164.639 115.01C164.379 115.023 164.163 115.027 163.989 115.02C163.823 115.02 163.603 115.013 163.329 115C163.063 114.98 162.899 114.967 162.839 114.96ZM163.279 113.78C163.666 113.82 164.063 113.833 164.469 113.82C164.883 113.807 165.209 113.743 165.449 113.63C165.796 113.457 166.006 113.213 166.079 112.9C166.146 112.607 166.046 112.343 165.779 112.11C165.706 112.037 165.636 111.98 165.569 111.94C165.509 111.9 165.429 111.873 165.329 111.86C165.229 111.847 165.149 111.84 165.089 111.84C165.036 111.84 164.916 111.843 164.729 111.85C164.549 111.857 164.403 111.86 164.289 111.86C164.229 111.867 164.169 111.86 164.109 111.84C164.063 111.847 163.913 111.847 163.659 111.84C163.406 111.833 163.266 111.83 163.239 111.83C163.246 112.497 163.259 113.147 163.279 113.78ZM163.229 110.63C163.303 110.63 163.449 110.633 163.669 110.64C163.889 110.64 164.033 110.64 164.099 110.64C164.173 110.633 164.283 110.623 164.429 110.61C164.576 110.597 164.703 110.58 164.809 110.56C164.916 110.533 165.023 110.497 165.129 110.45C165.329 110.357 165.489 110.25 165.609 110.13C165.729 110.01 165.799 109.893 165.819 109.78C165.873 109.607 165.733 109.417 165.399 109.21C165.146 109.057 164.823 108.977 164.429 108.97C164.043 108.963 163.649 109 163.249 109.08C163.236 109.573 163.229 110.09 163.229 110.63ZM172.026 113.1H171.966C171.793 113.113 171.629 113.123 171.476 113.13L171.116 113.14C171.029 113.147 170.936 113.153 170.836 113.16C170.736 113.167 170.669 113.173 170.636 113.18C170.609 113.18 170.559 113.18 170.486 113.18H170.356C170.343 113.18 170.293 113.183 170.206 113.19C170.126 113.19 170.069 113.19 170.036 113.19C170.009 113.183 169.929 113.18 169.796 113.18H169.476C169.249 113.667 169.056 114.14 168.896 114.6C168.836 114.76 168.729 114.877 168.576 114.95C168.423 115.023 168.263 115.033 168.096 114.98C167.936 114.92 167.819 114.813 167.746 114.66C167.673 114.507 167.663 114.347 167.716 114.18C167.869 113.807 168.043 113.387 168.236 112.92L168.916 111.3L169.476 109.96C169.536 109.82 169.616 109.613 169.716 109.34C169.823 109.06 169.889 108.88 169.916 108.8C170.003 108.58 170.076 108.413 170.136 108.3C170.189 108.2 170.246 108.12 170.306 108.06C170.486 107.847 170.706 107.767 170.966 107.82C171.093 107.847 171.206 107.907 171.306 108C171.346 108.04 171.383 108.087 171.416 108.14C171.456 108.2 171.499 108.277 171.546 108.37C171.613 108.497 171.689 108.67 171.776 108.89L172.106 109.76C172.866 111.833 173.443 113.29 173.836 114.13C173.923 114.257 173.929 114.41 173.856 114.59C173.783 114.763 173.666 114.887 173.506 114.96C173.353 115.027 173.196 115.027 173.036 114.96C172.876 114.893 172.763 114.783 172.696 114.63L172.026 113.1ZM169.996 111.94C170.196 111.94 170.716 111.917 171.556 111.87L170.926 110.2L170.836 109.92L170.636 110.44L169.996 111.94ZM174.906 114.42C174.872 113.833 174.836 112.823 174.796 111.39C174.782 111.33 174.776 111.27 174.776 111.21C174.776 111.157 174.779 111.107 174.786 111.06C174.752 109.92 174.716 109.06 174.676 108.48C174.662 108.307 174.712 108.157 174.826 108.03C174.939 107.897 175.082 107.827 175.256 107.82C175.429 107.807 175.579 107.857 175.706 107.97C175.839 108.083 175.909 108.227 175.916 108.4C175.956 108.92 175.992 109.65 176.026 110.59C176.392 110.59 176.952 110.593 177.706 110.6C178.459 110.607 179.026 110.61 179.406 110.61C179.432 109.83 179.469 109.077 179.516 108.35C179.522 108.177 179.589 108.033 179.716 107.92C179.849 107.807 180.002 107.757 180.176 107.77C180.349 107.777 180.492 107.847 180.606 107.98C180.719 108.107 180.769 108.257 180.756 108.43C180.642 110.277 180.586 112.267 180.586 114.4C180.586 114.573 180.526 114.72 180.406 114.84C180.286 114.96 180.139 115.02 179.966 115.02C179.792 115.02 179.646 114.96 179.526 114.84C179.406 114.72 179.346 114.573 179.346 114.4C179.346 113.56 179.352 112.713 179.366 111.86C178.999 111.86 178.446 111.857 177.706 111.85C176.972 111.843 176.422 111.84 176.056 111.84C176.089 112.92 176.119 113.76 176.146 114.36C176.159 114.533 176.106 114.683 175.986 114.81C175.872 114.937 175.729 115.003 175.556 115.01C175.382 115.023 175.232 114.973 175.106 114.86C174.979 114.74 174.912 114.593 174.906 114.42ZM183.234 114.92C183.107 115.013 182.964 115.047 182.804 115.02C182.651 115 182.527 114.927 182.434 114.8C182.334 114.667 182.301 114.517 182.334 114.35V114.33C182.414 113.383 182.451 112.4 182.444 111.38C182.437 110.36 182.367 109.393 182.234 108.48C182.207 108.32 182.241 108.177 182.334 108.05C182.427 107.923 182.551 107.85 182.704 107.83C182.864 107.803 183.007 107.837 183.134 107.93C183.261 108.023 183.334 108.147 183.354 108.3C183.567 109.687 183.631 111.307 183.544 113.16C183.824 112.887 184.094 112.593 184.354 112.28C184.614 111.96 185.097 111.3 185.804 110.3L187.194 108.07C187.274 107.937 187.391 107.853 187.544 107.82C187.697 107.78 187.841 107.803 187.974 107.89C188.087 107.957 188.164 108.05 188.204 108.17C188.251 108.283 188.257 108.4 188.224 108.52V108.54C188.217 108.967 188.194 109.487 188.154 110.1C188.114 110.707 188.077 111.207 188.044 111.6C188.017 111.987 188.014 112.447 188.034 112.98C188.054 113.513 188.107 113.973 188.194 114.36C188.227 114.513 188.197 114.657 188.104 114.79C188.017 114.917 187.897 114.997 187.744 115.03C187.591 115.063 187.447 115.037 187.314 114.95C187.187 114.857 187.107 114.733 187.074 114.58C186.954 114.033 186.891 113.387 186.884 112.64C186.877 111.893 186.904 111.213 186.964 110.6C186.684 111.06 186.421 111.453 186.174 111.78C185.934 112.1 185.657 112.46 185.344 112.86C185.031 113.26 184.694 113.633 184.334 113.98C183.981 114.327 183.614 114.64 183.234 114.92ZM194.684 115.01C193.631 115.01 192.277 114.993 190.624 114.96C190.451 114.96 190.304 114.9 190.184 114.78C190.064 114.653 190.007 114.503 190.014 114.33C190.014 114.27 190.021 114.213 190.034 114.16C189.821 112.407 189.731 110.573 189.764 108.66C189.751 108.6 189.744 108.537 189.744 108.47C189.744 108.303 189.804 108.16 189.924 108.04C190.051 107.913 190.201 107.853 190.374 107.86C191.114 107.867 192.501 107.87 194.534 107.87C194.707 107.87 194.854 107.93 194.974 108.05C195.094 108.17 195.154 108.317 195.154 108.49C195.154 108.663 195.094 108.81 194.974 108.93C194.854 109.05 194.707 109.11 194.534 109.11H191.004C191.004 109.65 191.011 110.173 191.024 110.68C191.684 110.693 192.761 110.683 194.254 110.65C194.421 110.643 194.567 110.7 194.694 110.82C194.821 110.94 194.884 111.087 194.884 111.26C194.891 111.427 194.834 111.573 194.714 111.7C194.594 111.827 194.447 111.89 194.274 111.89C192.821 111.923 191.757 111.937 191.084 111.93C191.124 112.483 191.174 113.083 191.234 113.73C192.581 113.757 193.731 113.77 194.684 113.77C194.857 113.77 195.004 113.83 195.124 113.95C195.244 114.07 195.304 114.217 195.304 114.39C195.304 114.563 195.244 114.71 195.124 114.83C195.004 114.95 194.857 115.01 194.684 115.01Z" fill="white"/>
<path d="M10.846 91.0706C10.1713 91.4959 9.38667 91.7746 8.492 91.9066C7.612 92.0239 6.79067 92.0019 6.028 91.8406C5.08933 91.6646 4.21667 91.3346 3.41 90.8506C2.618 90.3666 2.00933 89.7286 1.584 88.9366C1.1 88.0566 0.836 86.8979 0.792 85.4606C0.792 85.0792 0.799333 84.5292 0.814 83.8106C0.843333 83.0919 0.858 82.6226 0.858 82.4026C0.858 82.0506 0.975333 81.7572 1.21 81.5226C1.45933 81.2732 1.76 81.1486 2.112 81.1486C2.464 81.1486 2.75733 81.2732 2.992 81.5226C3.24133 81.7572 3.366 82.0506 3.366 82.4026C3.366 82.6372 3.35133 83.0992 3.322 83.7886C3.30733 84.4779 3.30733 85.0132 3.322 85.3946C3.35133 86.4359 3.50533 87.2206 3.784 87.7486C4.004 88.1299 4.34867 88.4672 4.818 88.7606C5.28733 89.0539 5.83733 89.2519 6.468 89.3546C7.11333 89.4719 7.722 89.4866 8.294 89.3986C8.866 89.2959 9.33533 89.1052 9.702 88.8266C9.99533 88.6212 10.186 88.4232 10.274 88.2326C10.318 88.1446 10.3473 88.0639 10.362 87.9906C10.3913 87.9026 10.4353 87.7706 10.494 87.5946L10.67 87.0446C10.6847 86.9712 10.714 86.9052 10.758 86.8466C10.67 85.3066 10.5307 83.8766 10.34 82.5566C10.296 82.2192 10.3767 81.9112 10.582 81.6326C10.7873 81.3539 11.0587 81.1926 11.396 81.1486C11.748 81.0899 12.0633 81.1632 12.342 81.3686C12.6207 81.5739 12.7893 81.8526 12.848 82.2046C12.9653 83.0846 13.0607 83.9646 13.134 84.8446C13.222 85.7099 13.2807 86.7072 13.31 87.8366C13.3393 88.9659 13.354 89.7946 13.354 90.3226C13.3687 90.8506 13.3687 91.8112 13.354 93.2046C13.354 94.5832 13.354 95.3972 13.354 95.6466C13.354 95.9986 13.2293 96.2992 12.98 96.5486C12.7453 96.7832 12.452 96.9006 12.1 96.9006C11.748 96.9006 11.4473 96.7832 11.198 96.5486C10.9633 96.2992 10.846 95.9986 10.846 95.6466V91.0706ZM19.4836 96.6806C19.2049 96.8859 18.8896 96.9592 18.5376 96.9006C18.2002 96.8566 17.9289 96.6952 17.7236 96.4166C17.5036 96.1232 17.4302 95.7932 17.5036 95.4266V95.3826C17.6796 93.2999 17.7602 91.1366 17.7456 88.8926C17.7309 86.6486 17.5769 84.5219 17.2836 82.5126C17.2249 82.1606 17.2982 81.8452 17.5036 81.5666C17.7089 81.2879 17.9802 81.1266 18.3176 81.0826C18.6696 81.0239 18.9849 81.0972 19.2636 81.3026C19.5422 81.5079 19.7036 81.7792 19.7476 82.1166C20.2169 85.1672 20.3562 88.7312 20.1656 92.8086C20.7816 92.2072 21.3756 91.5619 21.9476 90.8726C22.5196 90.1686 23.5829 88.7166 25.1376 86.5166L28.1956 81.6106C28.3716 81.3172 28.6282 81.1339 28.9656 81.0606C29.3029 80.9726 29.6182 81.0239 29.9116 81.2146C30.1609 81.3612 30.3296 81.5666 30.4176 81.8306C30.5202 82.0799 30.5349 82.3366 30.4616 82.6006V82.6446C30.4469 83.5832 30.3956 84.7272 30.3076 86.0766C30.2196 87.4112 30.1389 88.5112 30.0656 89.3766C30.0069 90.2272 29.9996 91.2392 30.0436 92.4126C30.0876 93.5859 30.2049 94.5979 30.3956 95.4486C30.4689 95.7859 30.4029 96.1012 30.1976 96.3946C30.0069 96.6732 29.7429 96.8492 29.4056 96.9226C29.0682 96.9959 28.7529 96.9372 28.4596 96.7466C28.1809 96.5412 28.0049 96.2699 27.9316 95.9326C27.6676 94.7299 27.5282 93.3072 27.5136 91.6646C27.4989 90.0219 27.5576 88.5259 27.6896 87.1766C27.0736 88.1886 26.4942 89.0539 25.9516 89.7726C25.4236 90.4766 24.8149 91.2686 24.1256 92.1486C23.4362 93.0286 22.6956 93.8499 21.9036 94.6126C21.1262 95.3752 20.3196 96.0646 19.4836 96.6806ZM39.3783 96.7906C38.3809 96.5559 37.4423 96.1672 36.5623 95.6246C35.6969 95.0672 35.0149 94.4072 34.5163 93.6446C33.9443 92.7646 33.5776 91.7966 33.4163 90.7406C33.2549 89.6846 33.2843 88.6579 33.5043 87.6606C33.7243 86.6486 34.0983 85.7172 34.6263 84.8666C35.1689 83.9426 35.8509 83.1726 36.6723 82.5566C37.5083 81.9259 38.4763 81.4786 39.5763 81.2146C40.6763 80.9506 41.8569 81.0019 43.1183 81.3686C43.5876 81.5006 43.9983 81.6472 44.3503 81.8086C44.7169 81.9699 45.0396 82.1826 45.3183 82.4466C45.6116 82.6959 45.8316 82.9012 45.9783 83.0626C46.1249 83.2092 46.3303 83.4659 46.5943 83.8326C46.8583 84.1846 47.0343 84.4119 47.1223 84.5146C47.3569 84.7786 47.4449 85.0939 47.3863 85.4606C47.3423 85.8126 47.1736 86.0912 46.8803 86.2966C46.5869 86.5019 46.2496 86.5826 45.8683 86.5386C45.5016 86.4946 45.2156 86.3332 45.0103 86.0546L44.3723 85.3066C44.1523 85.0132 43.9983 84.8152 43.9103 84.7126C43.8223 84.6099 43.6903 84.4852 43.5143 84.3386C43.3529 84.1919 43.1843 84.0819 43.0083 84.0086C42.8469 83.9352 42.6269 83.8619 42.3483 83.7886C41.2336 83.4952 40.2069 83.5612 39.2683 83.9866C38.3443 84.4119 37.5743 85.1159 36.9583 86.0986C36.3569 87.0812 36.0416 88.1372 36.0123 89.2666C35.9829 90.3959 36.2543 91.4079 36.8263 92.3026C37.1196 92.7572 37.5523 93.1679 38.1243 93.5346C38.6963 93.9012 39.3123 94.1579 39.9723 94.3046C41.3803 94.6126 42.4656 94.3779 43.2283 93.6006C43.4483 93.3659 43.6976 93.0066 43.9763 92.5226C44.4896 91.4959 44.7463 90.9752 44.7463 90.9606C44.9369 90.6526 45.2083 90.4546 45.5603 90.3666C45.9269 90.2639 46.2716 90.3006 46.5943 90.4766C46.9169 90.6379 47.1296 90.8946 47.2323 91.2466C47.3349 91.5839 47.2983 91.8992 47.1223 92.1926C47.0343 92.3392 46.9536 92.4859 46.8803 92.6326L46.6163 93.1606L46.3963 93.6226C46.0296 94.3266 45.6483 94.8839 45.2523 95.2946C44.7243 95.8226 44.1156 96.2332 43.4263 96.5266C42.7369 96.8052 42.0549 96.9446 41.3803 96.9446C40.7203 96.9592 40.0529 96.9079 39.3783 96.7906ZM56.4352 95.5366C56.4352 95.9179 56.2958 96.2406 56.0172 96.5046C55.7532 96.7686 55.4305 96.8932 55.0492 96.8786C54.6678 96.8786 54.3452 96.7466 54.0812 96.4826C53.8172 96.2039 53.6925 95.8739 53.7072 95.4926C53.8245 89.7286 53.8832 85.8859 53.8832 83.9646L50.0332 83.8766C49.6518 83.8766 49.3292 83.7446 49.0652 83.4806C48.8012 83.2019 48.6692 82.8719 48.6692 82.4906C48.6838 82.1092 48.8232 81.7866 49.0872 81.5226C49.3658 81.2586 49.6958 81.1339 50.0772 81.1486C51.1478 81.1632 52.8198 81.1926 55.0932 81.2366C57.3812 81.2806 59.1192 81.3172 60.3072 81.3466C60.6885 81.3466 61.0112 81.4859 61.2752 81.7646C61.5392 82.0286 61.6638 82.3512 61.6492 82.7326C61.6492 83.1139 61.5098 83.4366 61.2312 83.7006C60.9672 83.9646 60.6445 84.0892 60.2632 84.0746C59.2512 84.0599 58.0338 84.0379 56.6112 84.0086C56.6112 85.9446 56.5525 89.7872 56.4352 95.5366ZM65.6251 97.0326C65.2438 97.0619 64.9065 96.9519 64.6131 96.7026C64.3345 96.4532 64.1878 96.1379 64.1731 95.7566C64.0851 94.3926 64.0191 92.1999 63.9751 89.1786C63.9311 86.3186 63.8578 84.1259 63.7551 82.6006C63.7258 82.2339 63.8358 81.9112 64.0851 81.6326C64.3345 81.3392 64.6425 81.1779 65.0091 81.1486C65.3905 81.1192 65.7205 81.2292 65.9991 81.4786C66.2925 81.7279 66.4538 82.0432 66.4831 82.4246C66.5858 83.8179 66.6591 85.5852 66.7031 87.7266H67.2751C68.1405 87.7119 68.8005 87.7119 69.2551 87.7266C71.0445 87.7999 72.4378 88.1226 73.4351 88.6946C74.6525 89.3986 75.4225 90.2346 75.7451 91.2026C76.2878 92.7426 76.0751 94.0332 75.1071 95.0746C74.4031 95.8372 73.3325 96.3432 71.8951 96.5926C70.6485 96.8272 68.8225 96.8712 66.4171 96.7246C66.1825 96.9152 65.9185 97.0179 65.6251 97.0326ZM66.8351 93.9966C68.8738 94.1139 70.3991 94.0846 71.4111 93.9086C72.2471 93.7472 72.8118 93.5126 73.1051 93.2046C73.3251 92.9552 73.3398 92.5372 73.1491 91.9506C73.0465 91.6279 72.6871 91.3346 72.0711 91.0706C71.4698 90.7186 70.5018 90.5206 69.1671 90.4766C68.7418 90.4619 68.1185 90.4619 67.2971 90.4766H66.7251C66.7545 91.8699 66.7911 93.0432 66.8351 93.9966ZM80.2111 95.6026C80.1965 95.9839 80.0498 96.3066 79.7711 96.5706C79.4925 96.8199 79.1625 96.9299 78.7811 96.9006C78.3998 96.8859 78.0771 96.7392 77.8131 96.4606C77.5638 96.1819 77.4538 95.8519 77.4831 95.4706C77.4978 95.0746 77.5491 94.0259 77.6371 92.3246C77.7398 90.6086 77.7985 89.4059 77.8131 88.7166C77.8425 88.0126 77.8425 87.0812 77.8131 85.9226C77.7985 84.7492 77.7325 83.6419 77.6151 82.6006C77.5711 82.2192 77.6665 81.8819 77.9011 81.5886C78.1358 81.2952 78.4438 81.1266 78.8251 81.0826C79.2065 81.0386 79.5438 81.1339 79.8371 81.3686C80.1305 81.6032 80.2991 81.9112 80.3431 82.2926C80.4751 83.4219 80.5485 84.5439 80.5631 85.6586C80.5925 87.0226 80.5925 88.0712 80.5631 88.8046C80.5485 89.5232 80.4898 90.7552 80.3871 92.5006C80.2845 94.2312 80.2258 95.2652 80.2111 95.6026ZM85.7008 96.9006C85.2608 96.9006 84.9088 96.7246 84.6448 96.3726C84.3955 96.0206 84.3442 95.6392 84.4908 95.2286C84.8428 90.5939 84.7695 86.3186 84.2708 82.4026C84.2268 82.0652 84.3075 81.7572 84.5128 81.4786C84.7328 81.1999 85.0115 81.0386 85.3488 80.9946C85.7008 80.9506 86.0162 81.0386 86.2948 81.2586C86.5735 81.4639 86.7348 81.7426 86.7788 82.0946C87.1895 85.4679 87.3142 89.0172 87.1528 92.7426C87.7542 92.1559 88.3335 91.5252 88.8908 90.8506C89.4482 90.1759 90.0055 89.4206 90.5628 88.5846L91.9708 86.4286L93.5108 83.9206L94.9408 81.5666C95.1168 81.3026 95.3442 81.1266 95.6228 81.0386C95.9162 80.9359 96.2022 80.9432 96.4808 81.0606C96.7742 81.1192 97.0162 81.2659 97.2068 81.5006C97.3975 81.7352 97.4928 82.0066 97.4928 82.3146C97.4782 83.2386 97.4268 84.3679 97.3388 85.7026L97.1628 89.0686C97.1042 89.9779 97.0895 91.0192 97.1188 92.1926C97.1482 93.3512 97.2508 94.4219 97.4268 95.4046C97.4855 95.7566 97.4122 96.0719 97.2068 96.3506C97.0162 96.6292 96.7448 96.7979 96.3928 96.8566C96.0555 96.9152 95.7475 96.8492 95.4688 96.6586C95.1902 96.4532 95.0215 96.1819 94.9628 95.8446C94.7282 94.4806 94.6035 92.9552 94.5888 91.2686C94.5888 89.5672 94.6475 88.0492 94.7648 86.7146L93.0268 89.4206C92.5135 90.1979 91.9122 91.0339 91.2228 91.9286C90.5482 92.8232 89.8222 93.6519 89.0448 94.4146C88.2822 95.1772 87.4828 95.8666 86.6468 96.4826C86.3975 96.7612 86.0895 96.9006 85.7228 96.9006H85.7008ZM90.8708 79.9606C90.2695 79.9606 89.6902 79.8066 89.1328 79.4986C88.5902 79.2052 87.9595 78.7506 87.2408 78.1346C86.9915 77.9146 86.8522 77.6359 86.8228 77.2986C86.8082 76.9466 86.9182 76.6386 87.1528 76.3746C87.3875 76.0959 87.6735 75.9492 88.0108 75.9346C88.3628 75.9052 88.6708 76.0152 88.9348 76.2646C89.8588 77.0566 90.4968 77.4526 90.8488 77.4526C91.1862 77.4526 91.8828 77.0712 92.9388 76.3086C93.2322 76.1032 93.5475 76.0299 93.8848 76.0886C94.2222 76.1472 94.4935 76.3159 94.6988 76.5946C94.9042 76.8732 94.9775 77.1886 94.9188 77.5406C94.8602 77.8779 94.6915 78.1492 94.4128 78.3546C93.9142 78.6919 93.5182 78.9559 93.2248 79.1466C92.9315 79.3372 92.5648 79.5206 92.1248 79.6966C91.6848 79.8726 91.2668 79.9606 90.8708 79.9606ZM109.823 96.7686C109.662 96.7686 109.508 96.7319 109.361 96.6586C109.039 96.6292 108.76 96.4972 108.525 96.2626C108.291 96.0132 108.173 95.7272 108.173 95.4046C108.027 91.2979 107.997 87.0666 108.085 82.7106C108.085 82.3879 108.181 82.1092 108.371 81.8746C108.577 81.6252 108.826 81.4712 109.119 81.4126C109.163 81.3979 109.207 81.3906 109.251 81.3906L109.911 81.2806C110.337 81.1926 110.593 81.1486 110.681 81.1486C110.784 81.1339 111.048 81.0972 111.473 81.0386C111.913 80.9652 112.221 80.9286 112.397 80.9286C112.573 80.9286 112.859 80.9212 113.255 80.9066C113.651 80.8919 113.974 80.9066 114.223 80.9506L115.103 81.1266C115.426 81.1999 115.734 81.2952 116.027 81.4126C116.321 81.5446 116.599 81.6986 116.863 81.8746C117.714 82.4026 118.323 83.0406 118.689 83.7886C119.071 84.5366 119.166 85.2846 118.975 86.0326C118.785 86.7806 118.352 87.4919 117.677 88.1666C117.809 88.2692 117.949 88.3792 118.095 88.4966C118.741 89.0979 119.188 89.7726 119.437 90.5206C119.687 91.2979 119.716 92.0679 119.525 92.8306C119.364 93.5492 119.034 94.2092 118.535 94.8106C118.037 95.3972 117.435 95.8666 116.731 96.2186C116.306 96.4092 115.851 96.5632 115.367 96.6806C114.883 96.7979 114.355 96.8639 113.783 96.8786C113.211 96.9079 112.735 96.9152 112.353 96.9006C111.987 96.9006 111.503 96.8859 110.901 96.8566C110.315 96.8126 109.955 96.7832 109.823 96.7686ZM110.791 94.1726C111.642 94.2606 112.515 94.2899 113.409 94.2606C114.319 94.2312 115.037 94.0919 115.565 93.8426C116.328 93.4612 116.79 92.9259 116.951 92.2366C117.098 91.5912 116.878 91.0119 116.291 90.4986C116.13 90.3372 115.976 90.2126 115.829 90.1246C115.697 90.0366 115.521 89.9779 115.301 89.9486C115.081 89.9192 114.905 89.9046 114.773 89.9046C114.656 89.9046 114.392 89.9119 113.981 89.9266C113.585 89.9412 113.263 89.9486 113.013 89.9486C112.881 89.9632 112.749 89.9486 112.617 89.9046C112.515 89.9192 112.185 89.9192 111.627 89.9046C111.07 89.8899 110.762 89.8826 110.703 89.8826C110.718 91.3492 110.747 92.7792 110.791 94.1726ZM110.681 87.2426C110.843 87.2426 111.165 87.2499 111.649 87.2646C112.133 87.2646 112.449 87.2646 112.595 87.2646C112.757 87.2499 112.999 87.2279 113.321 87.1986C113.644 87.1692 113.923 87.1326 114.157 87.0886C114.392 87.0299 114.627 86.9492 114.861 86.8466C115.301 86.6412 115.653 86.4066 115.917 86.1426C116.181 85.8786 116.335 85.6219 116.379 85.3726C116.497 84.9912 116.189 84.5732 115.455 84.1186C114.898 83.7812 114.187 83.6052 113.321 83.5906C112.471 83.5759 111.605 83.6566 110.725 83.8326C110.696 84.9179 110.681 86.0546 110.681 87.2426ZM130.408 96.8126C129.264 96.9739 128.201 96.9299 127.218 96.6806C126.236 96.4166 125.4 95.9986 124.71 95.4266C124.021 94.8399 123.449 94.1652 122.994 93.4026C122.54 92.6252 122.224 91.7892 122.048 90.8946C121.916 90.1906 121.85 89.5232 121.85 88.8926C121.85 88.2472 121.946 87.5579 122.136 86.8246C122.342 86.0912 122.613 85.4019 122.95 84.7566C123.302 84.1112 123.757 83.5099 124.314 82.9526C124.872 82.3806 125.51 81.8966 126.228 81.5006C126.36 81.2806 126.551 81.1119 126.8 80.9946C127.05 80.8772 127.314 80.8332 127.592 80.8626L127.944 80.9066C128.032 80.8919 128.135 80.8699 128.252 80.8406C128.37 80.8112 128.458 80.7892 128.516 80.7746C128.59 80.7599 128.648 80.7452 128.692 80.7306C129.25 80.5692 129.726 80.7086 130.122 81.1486C130.445 81.1779 130.716 81.2292 130.936 81.3026C131.42 81.4346 131.853 81.6619 132.234 81.9846C132.586 82.2779 133.085 82.7692 133.73 83.4586C134.522 84.3092 135.087 85.0499 135.424 85.6806C135.864 86.5019 136.158 87.3599 136.304 88.2546C136.466 89.1492 136.451 90.0732 136.26 91.0266C136.07 91.9652 135.74 92.8452 135.27 93.6666C134.816 94.4732 134.163 95.1626 133.312 95.7346C132.476 96.2919 131.508 96.6512 130.408 96.8126ZM130.012 94.0846C130.79 93.9819 131.472 93.6812 132.058 93.1826C132.645 92.6839 133.07 92.0972 133.334 91.4226C133.598 90.7332 133.708 89.9706 133.664 89.1346C133.635 88.4599 133.415 87.7486 133.004 87.0006C132.755 86.5312 132.322 85.9666 131.706 85.3066C130.914 84.4559 130.401 84.0012 130.166 83.9426C130.049 83.8986 129.756 83.8546 129.286 83.8106L128.098 83.7006C127.893 83.7592 127.71 83.8326 127.548 83.9206C126.39 84.5366 125.561 85.4679 125.062 86.7146C124.564 87.9612 124.454 89.1639 124.732 90.3226C124.996 91.5986 125.583 92.5959 126.492 93.3146C127.402 94.0332 128.575 94.2899 130.012 94.0846ZM145.82 96.6806C145.16 96.8272 144.5 96.9006 143.84 96.9006C143.18 96.9152 142.513 96.8272 141.838 96.6366C141.178 96.4312 140.613 96.1306 140.144 95.7346C139.836 95.4266 139.557 95.0012 139.308 94.4586L139.066 93.9526C138.993 93.7912 138.927 93.6666 138.868 93.5786C138.692 93.2999 138.648 92.9919 138.736 92.6546C138.824 92.3172 139.007 92.0679 139.286 91.9066C139.579 91.7306 139.895 91.6866 140.232 91.7746C140.569 91.8626 140.826 92.0459 141.002 92.3246L141.31 92.8966L141.53 93.3806C141.647 93.6299 141.757 93.7986 141.86 93.8866C142.109 94.1212 142.535 94.2826 143.136 94.3706C143.737 94.4586 144.463 94.4219 145.314 94.2606C146.077 94.0846 146.707 93.8352 147.206 93.5126C147.705 93.1752 148.013 92.8379 148.13 92.5006C148.218 92.2072 148.13 91.8039 147.866 91.2906C147.587 90.7332 147.265 90.3446 146.898 90.1246C146.737 90.0366 146.348 89.9339 145.732 89.8166H145.71C145.681 89.8312 145.49 89.8606 145.138 89.9046C144.801 89.9339 144.515 89.9192 144.28 89.8606C143.723 89.6992 143.363 89.3472 143.202 88.8046C143.055 88.3499 143.136 87.9539 143.444 87.6166C143.547 87.4699 143.686 87.3599 143.862 87.2866C143.965 87.2426 144.075 87.2059 144.192 87.1766C144.265 87.1766 144.361 87.1692 144.478 87.1546C144.801 87.1106 145.028 87.0812 145.16 87.0666C145.776 86.9639 146.245 86.8099 146.568 86.6046C146.905 86.3846 147.111 86.1866 147.184 86.0106C147.257 85.8199 147.257 85.4386 147.184 84.8666C147.14 84.4412 146.913 84.0966 146.502 83.8326C146.106 83.5686 145.541 83.4366 144.808 83.4366C144.045 83.4366 143.363 83.5759 142.762 83.8546C142.175 84.1332 141.787 84.4559 141.596 84.8226V84.9986C141.596 85.0279 141.589 85.0572 141.574 85.0866C141.574 85.1159 141.574 85.1526 141.574 85.1966V85.2846C141.559 85.4606 141.537 85.6072 141.508 85.7246C141.449 86.0472 141.273 86.3112 140.98 86.5166C140.687 86.7072 140.379 86.7806 140.056 86.7366C139.733 86.6779 139.469 86.5092 139.264 86.2306C139.073 85.9372 139.007 85.6219 139.066 85.2846C139.066 85.2406 139.073 85.1746 139.088 85.0866C139.103 84.8666 139.11 84.7492 139.11 84.7346C139.154 84.3386 139.249 84.0012 139.396 83.7226C139.836 82.7986 140.569 82.1092 141.596 81.6546C142.637 81.1852 143.708 80.9506 144.808 80.9506C145.336 80.9506 145.849 81.0166 146.348 81.1486C146.861 81.2806 147.353 81.4786 147.822 81.7426C148.306 81.9919 148.717 82.3732 149.054 82.8866C149.391 83.3852 149.589 83.9426 149.648 84.5586C149.765 85.5266 149.721 86.3039 149.516 86.8906C149.311 87.4039 148.973 87.8586 148.504 88.2546C149.149 88.7239 149.67 89.3546 150.066 90.1466C150.653 91.2759 150.792 92.3099 150.484 93.2486C150.191 94.1432 149.604 94.8839 148.724 95.4706C147.859 96.0426 146.891 96.4459 145.82 96.6806ZM164.504 98.7926C164.504 97.7512 164.512 97.0619 164.526 96.7246C163.016 96.7539 159.76 96.7979 154.758 96.8566C154.758 96.8712 154.839 97.3626 155 98.3306C155.059 98.6826 154.986 98.9979 154.78 99.2766C154.59 99.5552 154.318 99.7459 153.966 99.8486C153.629 99.9512 153.321 99.8779 153.042 99.6286C152.764 99.3939 152.595 99.1079 152.536 98.7706L152.382 97.9786C152.338 97.6999 152.309 97.5459 152.294 97.5166C152.294 97.4872 152.287 97.3919 152.272 97.2306C152.258 97.0692 152.25 96.9666 152.25 96.9226C152.25 96.8786 152.243 96.7246 152.228 96.4606L152.184 95.6246C152.17 95.3019 152.265 95.0159 152.47 94.7666C152.676 94.5026 152.94 94.3486 153.262 94.3046C155.008 90.8872 155.675 87.0152 155.264 82.6886V82.6006C155.25 82.4979 155.242 82.4026 155.242 82.3146C155.257 81.9626 155.389 81.6692 155.638 81.4346C155.902 81.1999 156.203 81.0899 156.54 81.1046H162.502C162.84 81.1192 163.104 81.1266 163.294 81.1266C163.412 81.1412 163.507 81.1486 163.58 81.1486C163.654 81.1632 163.712 81.1706 163.756 81.1706C163.918 81.1999 164.079 81.2659 164.24 81.3686C164.988 81.8672 165.362 82.7399 165.362 83.9866C165.362 84.2799 165.348 84.6392 165.318 85.0646C165.274 85.4312 165.252 85.6292 165.252 85.6586C165.208 86.9346 165.26 88.5626 165.406 90.5426C165.421 90.8506 165.458 91.4152 165.516 92.2366C165.59 93.0579 165.641 93.7106 165.67 94.1946H165.78C166.118 94.1946 166.404 94.3046 166.638 94.5246C166.888 94.7446 167.027 95.0159 167.056 95.3386C167.071 95.4412 167.078 95.5439 167.078 95.6466C167.034 96.7906 167.012 97.8392 167.012 98.7926C167.012 99.1446 166.888 99.4379 166.638 99.6726C166.404 99.9219 166.11 100.047 165.758 100.047C165.406 100.047 165.106 99.9219 164.856 99.6726C164.622 99.4379 164.504 99.1446 164.504 98.7926ZM156.034 94.3046C159.334 94.2899 161.71 94.2679 163.162 94.2386C163.133 93.7839 163.082 93.1679 163.008 92.3906C162.95 91.5986 162.913 91.0339 162.898 90.6966C162.752 88.6432 162.7 86.9346 162.744 85.5706C162.744 85.5412 162.766 85.2846 162.81 84.8006C162.84 84.4779 162.854 84.2139 162.854 84.0086C162.854 83.8619 162.847 83.7372 162.832 83.6346H162.458C161.945 83.6199 161.197 83.6126 160.214 83.6126H157.86C158.08 87.5432 157.472 91.1072 156.034 94.3046ZM171.702 97.3626C171.277 97.3332 170.793 97.1939 170.25 96.9446L169.744 96.7026C169.583 96.6292 169.458 96.5706 169.37 96.5266C169.047 96.4092 168.813 96.1966 168.666 95.8886C168.519 95.5659 168.505 95.2432 168.622 94.9206C168.754 94.5979 168.974 94.3632 169.282 94.2166C169.605 94.0699 169.927 94.0626 170.25 94.1946C170.426 94.2532 170.624 94.3339 170.844 94.4366L171.306 94.6786C171.555 94.7812 171.746 94.8399 171.878 94.8546L171.9 94.8326H171.944L172.01 94.7886C172.039 94.7739 172.069 94.7592 172.098 94.7446C172.127 94.7152 172.164 94.6859 172.208 94.6566C172.252 94.6272 172.296 94.5979 172.34 94.5686C172.384 94.5246 172.435 94.4806 172.494 94.4366L172.648 94.2606C172.897 93.9966 173.213 93.5932 173.594 93.0506C171.995 90.4546 170.331 87.0812 168.6 82.9306C168.439 82.6079 168.409 82.2852 168.512 81.9626C168.629 81.6252 168.842 81.3832 169.15 81.2366C169.473 81.0752 169.795 81.0532 170.118 81.1706C170.455 81.2732 170.697 81.4786 170.844 81.7866C172.487 85.7319 173.924 88.7312 175.156 90.7846C177.151 87.6019 178.449 84.7052 179.05 82.0946C179.123 81.7572 179.307 81.4932 179.6 81.3026C179.893 81.1119 180.209 81.0532 180.546 81.1266C180.883 81.1999 181.147 81.3832 181.338 81.6766C181.529 81.9699 181.587 82.2852 181.514 82.6226C181.103 84.4119 180.385 86.3406 179.358 88.4086C178.317 90.5206 177.151 92.4566 175.86 94.2166C175.215 95.0966 174.753 95.6832 174.474 95.9766C173.55 96.9592 172.626 97.4212 171.702 97.3626ZM184.042 96.8786C183.66 96.9079 183.323 96.8052 183.03 96.5706C182.736 96.3359 182.568 96.0352 182.524 95.6686C182.494 95.2872 182.604 94.9499 182.854 94.6566L187.606 88.8926C186.036 86.7806 184.665 84.8739 183.492 83.1726C183.286 82.8499 183.22 82.5126 183.294 82.1606C183.367 81.7939 183.558 81.5079 183.866 81.3026C184.188 81.0972 184.533 81.0312 184.9 81.1046C185.266 81.1779 185.552 81.3612 185.758 81.6546L189.344 86.6486C190.693 84.8739 191.881 83.1726 192.908 81.5446C193.113 81.2512 193.399 81.0679 193.766 80.9946C194.147 80.9066 194.492 80.9579 194.8 81.1486C195.122 81.3392 195.32 81.6179 195.394 81.9846C195.482 82.3512 195.43 82.6959 195.24 83.0186C194.022 84.8666 192.622 86.8319 191.038 88.9146L195.548 94.7886C195.768 95.0819 195.848 95.4119 195.79 95.7786C195.746 96.1452 195.57 96.4386 195.262 96.6586C194.968 96.8786 194.631 96.9592 194.25 96.9006C193.883 96.8566 193.582 96.6879 193.348 96.3946L189.3 91.1146L184.966 96.3946C184.731 96.6732 184.423 96.8346 184.042 96.8786Z" fill="white"/>

<path d="M137 35C137 54.33 121.33 70 102 70C82.67 70 67 54.33 67 35C67 15.67 82.67 0 102 0C121.33 0 137 15.67 137 35ZM77.85 35C77.85 48.3377 88.6623 59.15 102 59.15C115.338 59.15 126.15 48.3377 126.15 35C126.15 21.6623 115.338 10.85 102 10.85C88.6623 10.85 77.85 21.6623 77.85 35Z" fill="white"/>
<path d="M136.256 70V66.3068L143.31 60.4716C143.777 60.0838 144.178 59.7206 144.51 59.3821C144.848 59.0374 145.107 58.6835 145.286 58.3203C145.47 57.9571 145.562 57.554 145.562 57.1108C145.562 56.6245 145.458 56.209 145.249 55.8643C145.045 55.5196 144.762 55.255 144.399 55.0703C144.036 54.8795 143.617 54.7841 143.143 54.7841C142.67 54.7841 142.251 54.8795 141.888 55.0703C141.531 55.2611 141.254 55.5412 141.057 55.9105C140.86 56.2798 140.761 56.7292 140.761 57.2585H135.886C135.886 55.929 136.185 54.7841 136.782 53.8239C137.379 52.8636 138.222 52.125 139.312 51.608C140.401 51.0909 141.679 50.8324 143.143 50.8324C144.658 50.8324 145.969 51.0755 147.077 51.5618C148.191 52.0419 149.049 52.719 149.653 53.593C150.262 54.4671 150.567 55.492 150.567 56.6676C150.567 57.3939 150.416 58.1172 150.114 58.8374C149.813 59.5514 149.271 60.3423 148.489 61.2102C147.708 62.0781 146.597 63.1122 145.156 64.3125L143.384 65.7898V65.9006H150.77V70H136.256Z" fill="white"/>
<g class="rotation">
<path d="M27.9936 49.2284L28.7102 43.5208L23.6943 41.3804" stroke="white" stroke-linecap="round"/>
<path d="M59.5223 37.8131L51.6401 41.3804L52.3567 50.6553" stroke="white" stroke-linecap="round"/>
<path d="M51.6401 21.4037L50.9236 29.9651L58.8057 34.2459" stroke="white" stroke-linecap="round"/>
<path d="M42.3248 34.2459V15.696" stroke="white" stroke-linecap="round"/>
<ellipse cx="42.3248" cy="35.6728" rx="2.86624" ry="2.85382" fill="white"/>
<path d="M59.5223 46.3746L43.758 36.8815" stroke="white" stroke-linecap="round"/>
<path d="M23.6943 46.3746L40.8917 36.3862" stroke="white" stroke-linecap="round"/>
<path d="M46.6242 17.1229L42.3248 19.9767L38.0255 17.1229" stroke="white" stroke-linecap="round"/>
<path d="M49.4904 19.2633L42.3248 23.544L34.4427 19.2633" stroke="white" stroke-linecap="round"/>
<path d="M46.6242 24.9709L42.3248 27.1113L37.3089 24.9709" stroke="white" stroke-linecap="round"/>
<path d="M49.4904 27.1113L42.3248 31.392L34.4427 27.1113" stroke="white" stroke-linecap="round"/>
<path d="M45.9076 33.5324L59.5223 25.6844" stroke="white" stroke-linecap="round"/>
<path d="M54.5064 22.8306V28.5382L59.5223 30.6786" stroke="white" stroke-linecap="round"/>
<path d="M60.2389 41.3804L55.2229 43.5208V49.2284" stroke="white" stroke-linecap="round"/>
<path d="M53.7898 37.0997L48.7739 39.9535V45.6611" stroke="white" stroke-linecap="round"/>
<path d="M53.0733 33.5324L45.1911 37.8131L45.9076 47.088" stroke="white" stroke-linecap="round"/>
<path d="M41.6083 40.6669V56.363" stroke="white" stroke-linecap="round"/>
<path d="M36.5924 54.2226L41.6083 50.6553L46.6242 54.2226" stroke="white" stroke-linecap="round"/>
<path d="M33.7261 51.3688L41.6083 46.3746L49.4905 51.3688" stroke="white" stroke-linecap="round"/>
<path d="M30.8599 50.6553L31.5764 42.0939L23.6943 37.8131" stroke="white" stroke-linecap="round"/>
<path d="M34.4427 45.6611V39.9535L29.4268 37.0997" stroke="white" stroke-linecap="round"/>
<path d="M37.3089 46.3746L38.0255 38.5266L30.1433 33.5324" stroke="white" stroke-linecap="round"/>
<path d="M23.6943 25.6844L37.3089 33.5324" stroke="white" stroke-linecap="round"/>
<path d="M28.7102 22.8306V28.5382L23.6943 31.392" stroke="white" stroke-linecap="round"/>
<path d="M32.293 21.4037V30.6786L24.4108 34.2459" stroke="white" stroke-linecap="round"/>
</g>
</svg>
